<svg width="386" height="387" viewBox="0 0 386 387" fill="none" xmlns="http://www.w3.org/2000/svg">
<path d="M135.5 44.592L112 58.092L118 69.092L135.5 79.092L150 86.592L170 100.092C208.667 113.759 290.7 141.492 309.5 143.092C328.3 144.692 349 140.759 357 138.592C364.333 135.092 379.8 127.792 383 126.592C387 125.092 383.5 120.092 379 120.592C374.5 121.092 346 90.592 344 86.592C342 82.592 291 39.092 244 32.092C206.4 26.492 180.667 29.7587 172.5 32.092L152 37.592L135.5 44.592Z" fill="#83AA34" stroke="#83AA34"/>
<path d="M120 53L111.5 57.5L117 68L130 75.5L146 83.5L170 99L182.5 94.5C182.667 89.3333 182.8 77 184 77C185.5 77 233.151 54.6768 246 52C258 49.5 258 40.5 243.5 43.5C232.08 45.8628 209.333 54 199.5 58.5L187.5 63.5L178.5 69L171 75.5L167 82.5C150 73.5 119.633 62.5 125 62.5C131.5 62.5 151.833 55 162 52C166.167 51.1667 175.2 49.5 178 49.5H194C198.8 49.5 198.667 44 198 42L196 39C195 38.6667 192 38 188 38C184 38 173.667 38.6667 169 39L157 42L148.5 48L132.5 50.5L120 53Z" fill="#508135" stroke="#497F32"/>
<path d="M231.5 88.5L215 87L225 80.5C231.833 75.6667 249.1 65 263.5 61C281.5 56 299.5 57.5 304.5 58C308.5 58.4 330.833 75.8333 341.5 84.5L333 89.5L325.5 97L314 109.5L304.5 117L317 130C324.948 133.264 340.317 139.019 346.928 139.667C349.387 139.209 350.518 139.048 349.5 139.5C348.966 139.737 348.08 139.78 346.928 139.667C338.517 141.231 314.577 146.256 308 142C301.2 137.6 285.167 116.833 278 107L286 109.5L294.5 111.5H297L302 109.5L318.5 91L330.5 79.5L325.5 74.5L311.5 68C308.333 66.5 299.4 64.1 289 66.5C276 69.5 257 70 231.5 88.5Z" fill="#4A8136"/>
<path d="M231.5 88.5L215 87L225 80.5C231.833 75.6667 249.1 65 263.5 61C281.5 56 299.5 57.5 304.5 58C308.5 58.4 330.833 75.8333 341.5 84.5L333 89.5L325.5 97L314 109.5L304.5 117L317 130C326.333 133.833 345.9 141.1 349.5 139.5C354 137.5 316.5 147.5 308 142C301.2 137.6 285.167 116.833 278 107L286 109.5L294.5 111.5H297L302 109.5L318.5 91L330.5 79.5L325.5 74.5L311.5 68C308.333 66.5 299.4 64.1 289 66.5C276 69.5 257 70 231.5 88.5Z" stroke="#497F32"/>
<path d="M46.6234 137.325C70.6234 112.825 114.623 113.325 132.623 111.325C150.623 109.325 136.723 123.725 153.123 111.325C173.623 95.8252 208.938 82.5025 232.123 86.8252C278.039 95.3857 312.123 127.325 333.623 181.825C355.123 236.325 341.623 258.825 345.123 285.325C348.623 311.825 326.623 328.825 326.623 328.825C315.29 338.325 276.723 360.225 213.123 371.825C149.523 383.425 93.29 370.658 73.1233 362.825C50.9567 350.825 5.62337 313.825 1.62337 261.825C-3.37663 196.825 22.6234 161.825 46.6234 137.325Z" fill="#712F58" stroke="#712F58"/>
<path fill-rule="evenodd" clip-rule="evenodd" d="M1.97796 228C0.850716 238.508 0.651817 250.005 1.62337 262.635C5.62337 314.635 50.9567 351.635 73.1233 363.635C93.29 371.469 149.523 384.235 213.123 372.635C276.723 361.035 315.29 339.135 326.623 329.635C326.623 329.635 348.623 312.635 345.123 286.135C344.521 281.578 344.422 277.139 344.562 272.635C340.037 289.077 327.247 298.961 327.247 298.961C315.913 308.461 277.347 330.361 213.747 341.961C150.147 353.561 93.9133 340.794 73.7467 332.961C51.58 320.961 6.24672 283.961 2.24672 231.961C2.14419 230.628 2.0547 229.308 1.97796 228ZM345.762 232C346.402 240.579 346.137 248.082 345.689 255.009C344.726 247.314 345.177 239.939 345.762 232Z" fill="#531B41"/>
<path d="M1.62337 262.635L1.12484 262.674L1.62337 262.635ZM1.97796 228L2.4771 227.971L1.48081 227.947L1.97796 228ZM73.1233 363.635L72.8853 364.075L72.913 364.09L72.9423 364.101L73.1233 363.635ZM326.623 329.635L326.318 329.24L326.31 329.246L326.302 329.252L326.623 329.635ZM345.123 286.135L344.628 286.201L344.628 286.201L345.123 286.135ZM344.562 272.635L345.061 272.65L344.079 272.502L344.562 272.635ZM327.247 298.961L326.941 298.565L326.933 298.571L326.926 298.578L327.247 298.961ZM73.7467 332.961L73.5087 333.4L73.5363 333.415L73.5656 333.427L73.7467 332.961ZM2.24672 231.961L2.74525 231.922L2.74525 231.922L2.24672 231.961ZM345.762 232L346.261 231.963L345.263 231.963L345.762 232ZM345.689 255.009L345.193 255.072L346.188 255.042L345.689 255.009ZM2.12189 262.597C1.15253 249.995 1.35134 238.529 2.47511 228.053L1.48081 227.947C0.350087 238.487 0.1511 250.015 1.12484 262.674L2.12189 262.597ZM73.3614 363.196C62.3294 357.224 45.5041 345.012 30.9425 327.812C16.3819 310.614 4.11135 288.46 2.12189 262.597L1.12484 262.674C3.13538 288.811 15.5315 311.157 30.1792 328.459C44.8259 345.759 61.7506 358.047 72.8853 364.075L73.3614 363.196ZM213.034 372.144C149.535 383.725 93.3951 370.973 73.3044 363.169L72.9423 364.101C93.1849 371.964 149.512 384.746 213.213 373.127L213.034 372.144ZM326.302 329.252C315.053 338.682 276.574 360.554 213.034 372.144L213.213 373.127C276.873 361.516 315.527 339.589 326.945 330.019L326.302 329.252ZM344.628 286.201C346.357 299.293 341.79 310.046 336.77 317.545C334.261 321.293 331.643 324.221 329.653 326.212C328.658 327.206 327.821 327.966 327.234 328.476C326.941 328.731 326.71 328.923 326.553 329.051C326.475 329.115 326.415 329.163 326.375 329.194C326.356 329.21 326.341 329.222 326.331 329.229C326.326 329.233 326.323 329.236 326.32 329.238C326.319 329.239 326.318 329.239 326.318 329.24C326.318 329.24 326.318 329.24 326.318 329.24C326.318 329.24 326.318 329.24 326.623 329.635C326.929 330.031 326.929 330.031 326.93 330.031C326.93 330.03 326.93 330.03 326.931 330.03C326.932 330.029 326.933 330.028 326.934 330.027C326.937 330.025 326.942 330.021 326.948 330.017C326.959 330.008 326.976 329.995 326.997 329.977C327.041 329.943 327.104 329.892 327.186 329.825C327.35 329.691 327.588 329.492 327.89 329.231C328.492 328.707 329.347 327.932 330.36 326.919C332.385 324.893 335.048 321.915 337.601 318.101C342.707 310.474 347.39 299.478 345.619 286.07L344.628 286.201ZM344.062 272.619C343.922 277.141 344.021 281.608 344.628 286.201L345.619 286.07C345.022 281.547 344.923 277.137 345.061 272.65L344.062 272.619ZM344.079 272.502C341.842 280.634 337.557 287.153 333.823 291.644C331.957 293.888 330.232 295.622 328.975 296.794C328.347 297.379 327.836 297.824 327.483 298.122C327.306 298.27 327.17 298.382 327.078 298.457C327.032 298.494 326.997 298.521 326.974 298.539C326.962 298.548 326.954 298.555 326.948 298.559C326.946 298.562 326.944 298.563 326.942 298.564C326.942 298.565 326.941 298.565 326.941 298.565C326.941 298.565 326.941 298.565 326.941 298.565C326.941 298.565 326.941 298.565 327.247 298.961C327.552 299.356 327.553 299.356 327.553 299.356C327.553 299.356 327.553 299.356 327.554 299.356C327.554 299.355 327.555 299.355 327.556 299.354C327.558 299.352 327.56 299.35 327.564 299.348C327.571 299.342 327.58 299.335 327.593 299.324C327.619 299.304 327.656 299.274 327.705 299.235C327.803 299.156 327.945 299.04 328.127 298.886C328.492 298.579 329.015 298.123 329.657 297.525C330.939 296.33 332.695 294.565 334.592 292.283C338.384 287.722 342.757 281.078 345.044 272.767L344.079 272.502ZM326.926 298.578C315.676 308.007 277.198 329.88 213.657 341.469L213.836 342.453C277.496 330.842 316.151 308.914 327.568 299.344L326.926 298.578ZM213.657 341.469C150.158 353.05 94.0185 340.299 73.9277 332.495L73.5656 333.427C93.8082 341.29 150.135 354.071 213.836 342.453L213.657 341.469ZM73.9847 332.521C62.9528 326.549 46.1274 314.337 31.5658 297.138C17.0052 279.939 4.7347 257.785 2.74525 231.922L1.74819 231.999C3.75873 258.136 16.1549 280.482 30.8026 297.784C45.4493 315.084 62.3739 327.373 73.5087 333.4L73.9847 332.521ZM2.74525 231.922C2.64295 230.593 2.55367 229.275 2.4771 227.971L1.47882 228.029C1.55574 229.34 1.64544 230.663 1.74819 231.999L2.74525 231.922ZM345.263 232.037C345.901 240.584 345.637 248.061 345.19 254.977L346.188 255.042C346.637 248.103 346.903 240.575 346.261 231.963L345.263 232.037ZM345.263 231.963C344.679 239.901 344.223 247.321 345.193 255.072L346.185 254.947C345.229 247.307 345.676 239.978 346.261 232.037L345.263 231.963Z" fill="#551C42"/>
<path d="M338.5 195.5C328.5 157.5 302.333 126 290.5 115L316.5 220.5L308 264.5L223 340C265.167 338.333 348.9 326.1 346.5 290.5C343.5 246 351 243 338.5 195.5Z" fill="#5D264B" stroke="#5D264B"/>
<path d="M264.585 322.723C241.385 344.723 172.918 350.89 141.585 351.223C130.585 339.39 113.4 329.2 123 328C135 326.5 187 344 250.5 310C314 276 300.5 249 304.5 245.5C307.7 242.7 309.333 224 309 214.5L304.5 201.223L293.5 198.5C297.167 188.667 291.385 167.023 282.585 148.223C273.785 129.423 264.252 117.39 260.585 113.723C258.252 109.39 248.585 100.023 228.585 97.2233C208.585 94.4233 182.918 104.723 172.585 110.223L191.085 120.723L186.085 133.723L153.585 136.223L114.085 124.223C97.7515 122.223 61.0849 124.223 45.0849 148.223C25.0849 178.223 2.08488 220.223 20.5849 253.723C35.3849 280.523 60.8333 304.167 75.5 310L62.5 326C53.8333 323.667 34.7849 306.023 17.5849 281.223C0.384873 256.423 1.83333 231 2.5 221C4.5 209.833 8.88487 179.723 28.0849 151.723C47.2849 123.723 84.4182 114.723 100.585 113.723H149.585C152.752 110.557 160.585 103.523 166.585 100.723C174.085 97.2233 206.085 85.2233 226.585 87.2233C247.085 89.2233 270.585 97.2233 288.085 113.723C302.085 126.923 311.585 142.223 314.585 148.223C320.252 168.723 332.385 212.523 335.585 223.723C339.585 237.723 293.585 295.223 264.585 322.723Z" fill="#632B50" stroke="#642B4F"/>
<path d="M296.987 313.02C298.96 306.142 306.654 304.02 309.487 303.52C301.987 278.52 320.487 267.52 321.487 268.02C322.487 268.52 342.487 266.02 348.987 273.52C355.487 281.02 367.495 287.827 363.487 311.02C359.547 333.821 329.822 350.666 321.487 350.52C313.632 350.383 299.661 354.094 292.987 341.52C287.687 331.533 294.378 322.12 296.987 313.02Z" fill="#CEB297" stroke="#CEB297"/>
<path fill-rule="evenodd" clip-rule="evenodd" d="M292 339.169C292.254 339.842 292.559 340.517 292.919 341.195C298.393 351.509 308.777 350.866 316.668 350.377C318.397 350.27 320.007 350.171 321.419 350.195C329.753 350.341 359.479 333.496 363.419 310.695C366.783 291.228 358.864 283.305 352.389 276.827C351.77 276.208 351.164 275.602 350.583 275C354.478 280.682 357.107 288.477 354.906 301.215C350.966 324.016 321.241 340.861 312.906 340.715C311.494 340.691 309.885 340.79 308.156 340.898C303.144 341.208 297.126 341.581 292 339.169Z" fill="#C9926C"/>
<path d="M292.919 341.195L292.477 341.43L292.477 341.43L292.919 341.195ZM292 339.169L292.213 338.717L291.096 338.191L291.532 339.346L292 339.169ZM316.668 350.377L316.699 350.876L316.699 350.876L316.668 350.377ZM321.419 350.195L321.428 349.695L321.428 349.695L321.419 350.195ZM363.419 310.695L363.912 310.78L363.912 310.78L363.419 310.695ZM352.389 276.827L352.035 277.181L352.035 277.181L352.389 276.827ZM350.583 275L350.942 274.653L350.17 275.283L350.583 275ZM354.906 301.215L355.399 301.301L355.399 301.301L354.906 301.215ZM312.906 340.715L312.915 340.216L312.915 340.216L312.906 340.715ZM308.156 340.898L308.187 341.397L308.156 340.898ZM293.361 340.961C293.01 340.301 292.714 339.645 292.468 338.992L291.532 339.346C291.794 340.039 292.108 340.733 292.477 341.43L293.361 340.961ZM316.637 349.878C312.678 350.124 308.188 350.398 304.008 349.352C299.86 348.314 296.022 345.976 293.361 340.961L292.477 341.43C295.29 346.728 299.381 349.225 303.766 350.322C308.12 351.412 312.767 351.12 316.699 350.876L316.637 349.878ZM321.428 349.695C319.992 349.67 318.361 349.772 316.637 349.878L316.699 350.876C318.434 350.769 320.022 350.671 321.41 350.695L321.428 349.695ZM362.926 310.61C360.987 321.833 352.683 331.646 343.758 338.657C339.303 342.156 334.714 344.941 330.728 346.84C326.719 348.749 323.388 349.73 321.428 349.695L321.41 350.695C323.617 350.734 327.127 349.663 331.158 347.743C335.213 345.811 339.865 342.987 344.376 339.443C353.382 332.368 361.911 322.358 363.912 310.78L362.926 310.61ZM352.035 277.181C355.277 280.424 358.812 283.966 361.138 289.097C363.459 294.215 364.594 300.958 362.926 310.61L363.912 310.78C365.608 300.965 364.465 294.014 362.049 288.684C359.638 283.367 355.976 279.709 352.743 276.474L352.035 277.181ZM350.223 275.347C350.808 275.953 351.417 276.562 352.035 277.181L352.743 276.474C352.123 275.854 351.52 275.251 350.942 274.653L350.223 275.347ZM350.17 275.283C353.986 280.849 356.594 288.511 354.413 301.13L355.399 301.301C357.62 288.444 354.969 280.514 350.995 274.717L350.17 275.283ZM354.413 301.13C352.474 312.353 344.17 322.166 335.245 329.177C330.791 332.677 326.202 335.461 322.216 337.36C318.206 339.27 314.875 340.25 312.915 340.216L312.897 341.215C315.104 341.254 318.614 340.183 322.646 338.263C326.7 336.331 331.352 333.507 335.863 329.963C344.87 322.888 353.398 312.879 355.399 301.301L354.413 301.13ZM312.915 340.216C311.479 340.19 309.848 340.292 308.125 340.399L308.187 341.397C309.921 341.289 311.509 341.191 312.897 341.215L312.915 340.216ZM308.125 340.399C303.087 340.711 297.204 341.064 292.213 338.717L291.787 339.621C297.049 342.097 303.2 341.705 308.187 341.397L308.125 340.399Z" fill="#C9926C"/>
<path d="M64.6024 322.363C73.4582 308.739 86.3261 303.332 94.0683 301.821C98.204 300.585 108.406 299.511 114.602 308.363C123.002 320.363 122.102 332.03 120.602 336.363H128.102C132.902 336.363 136.436 341.696 137.602 344.363C142.436 354.53 149.202 376.363 137.602 382.363C123.102 389.863 100.102 384.863 88.6024 377.863C77.1024 370.863 51.6024 342.363 64.6024 322.363Z" fill="#CEB297"/>
<path d="M97.6024 301.363C90.9357 301.696 75.0024 306.363 64.6024 322.363C51.6024 342.363 77.1024 370.863 88.6024 377.863C100.102 384.863 123.102 389.863 137.602 382.363C149.202 376.363 142.436 354.53 137.602 344.363C136.436 341.696 132.902 336.363 128.102 336.363C123.302 336.363 121.102 336.363 120.602 336.363C122.102 332.03 123.002 320.363 114.602 308.363C104.102 293.363 82.1024 306.863 97.6024 301.363Z" stroke="#CEB297"/>
<path fill-rule="evenodd" clip-rule="evenodd" d="M68.7117 317C67.2753 318.653 65.896 320.468 64.6024 322.458C51.6024 342.458 77.1024 370.958 88.6024 377.958C100.102 384.958 123.102 389.958 137.602 382.458C140.892 380.757 142.704 377.782 143.503 374.161C143.405 374.216 143.306 374.269 143.205 374.321C128.705 381.821 105.705 376.821 94.2048 369.821C83.2093 363.128 59.4153 336.78 68.7117 317Z" fill="#C9926C"/>
<path d="M64.6024 322.458L65.0216 322.731L64.6024 322.458ZM68.7117 317L69.1642 317.213L68.3343 316.672L68.7117 317ZM88.6024 377.958L88.8624 377.531L88.8624 377.531L88.6024 377.958ZM137.602 382.458L137.373 382.014L137.373 382.014L137.602 382.458ZM143.503 374.161L143.991 374.269L144.23 373.185L143.26 373.724L143.503 374.161ZM143.205 374.321L142.975 373.877L142.975 373.877L143.205 374.321ZM94.2048 369.821L94.4648 369.394L94.4648 369.394L94.2048 369.821ZM65.0216 322.731C66.3024 320.76 67.6677 318.964 69.0891 317.328L68.3343 316.672C66.8829 318.342 65.4897 320.176 64.1832 322.186L65.0216 322.731ZM88.8624 377.531C83.1907 374.079 73.9964 365.267 67.8457 354.829C61.6859 344.376 58.6823 332.483 65.0216 322.731L64.1832 322.186C57.5225 332.433 60.7689 344.79 66.9841 355.337C73.2084 365.899 82.5141 374.837 88.3424 378.385L88.8624 377.531ZM137.373 382.014C130.249 385.698 120.991 386.33 112.043 385.15C103.1 383.97 94.5437 380.989 88.8624 377.531L88.3424 378.385C94.1611 381.927 102.855 384.946 111.912 386.141C120.964 387.336 130.455 386.718 137.832 382.902L137.373 382.014ZM143.015 374.054C142.239 377.571 140.496 380.398 137.373 382.014L137.832 382.902C141.287 381.115 143.17 377.993 143.991 374.269L143.015 374.054ZM143.26 373.724C143.166 373.776 143.071 373.827 142.975 373.877L143.435 374.765C143.54 374.711 143.643 374.655 143.746 374.598L143.26 373.724ZM142.975 373.877C135.852 377.561 126.593 378.194 117.645 377.013C108.702 375.833 100.146 372.852 94.4648 369.394L93.9448 370.248C99.7635 373.79 108.457 376.809 117.514 378.004C126.566 379.199 136.058 378.581 143.435 374.765L142.975 373.877ZM94.4648 369.394C89.0435 366.094 80.3992 357.894 74.2733 348.054C68.1373 338.198 64.6281 326.864 69.1642 317.213L68.2592 316.787C63.4989 326.916 67.2385 338.646 73.4243 348.583C79.6202 358.535 88.3706 366.855 93.9448 370.248L94.4648 369.394Z" fill="#C9926C"/>
<path d="M37.5 247.864C28.7 237.464 25.5 225.864 25 221.364C48.2 218.964 64.3333 229.03 69.5 234.364C72.1667 237.697 76.6 245.064 73 247.864C68.5 251.364 48.5 260.864 37.5 247.864Z" fill="#B27A8C" stroke="#B27A8C"/>
<path d="M123.368 257.669C114.568 255.669 112.368 251.169 112.368 249.169C110.368 239.169 116.868 235.169 123.368 232.169C128.568 229.769 140.535 229.836 145.868 230.169C150.535 231.502 159.468 235.869 157.868 242.669C155.868 251.169 151.868 250.669 151.368 253.669C150.868 256.669 134.368 260.169 123.368 257.669Z" fill="#CB6965" stroke="#CB6965"/>
<path d="M105 207.222C105 223.622 113.667 231.722 118 233.722L145 229.722L153 224.722C155.667 218.889 158.5 204.222 148.5 192.222C138.5 180.222 125 181.222 119.5 183.222C114.667 184.389 105 190.822 105 207.222Z" fill="#491B26" stroke="#491B26"/>
<path d="M122.017 197.034C116.817 197.434 115.851 202.867 116.017 205.534C120.417 209.934 125.184 204.701 127.017 201.534C127.517 199.867 127.217 196.634 122.017 197.034Z" fill="#D9D9D9" stroke="#D9D9D9"/>
<path d="M139.302 191.379C131.933 189.166 131.469 197.212 132.302 200.879C135.802 204.379 140.96 202.34 141.802 202.879C142.902 203.583 149.002 194.291 139.302 191.379Z" fill="#D9D9D9" stroke="#D9D9D9"/>
<path d="M258.604 207C251.004 207 244.438 213.667 242.104 217C241.271 219.333 240.104 224.5 242.104 226.5C244.604 229 250.604 235 262.104 233C273.604 231 278.604 226.5 281.104 225.5C283.604 224.5 285.604 219.5 283.104 214C280.604 208.5 268.104 207 258.604 207Z" fill="#CB6965" stroke="#CB6965"/>
<path d="M221.385 182.404C218.185 198.004 235.718 209.237 244.885 212.904C253.052 211.237 269.585 207.604 270.385 206.404C271.385 204.904 271.885 202.904 271.885 198.404C271.885 194.804 270.885 188.904 270.385 186.404C269.552 182.237 265.885 172.104 257.885 164.904C249.885 157.704 240.218 158.571 236.385 159.904C232.718 160.904 224.585 166.804 221.385 182.404Z" fill="#491B26" stroke="#491B26"/>
<path d="M236.329 179.663C235.129 176.863 237.496 173.829 238.829 172.663C239.996 172.163 242.629 171.463 243.829 172.663C245.329 174.163 246.829 176.163 244.829 179.663C242.829 183.163 237.829 183.163 236.329 179.663Z" fill="#D9D9D9" stroke="#D9D9D9"/>
<path d="M252.523 171.137C248.523 171.537 247.856 174.97 248.023 176.637C250.523 180.637 252.531 182.317 254.523 182.137L254.534 182.136C255.848 182.017 262.018 181.459 260.523 176.637C258.867 171.298 257.523 170.637 252.523 171.137Z" fill="#D9D9D9" stroke="#D9D9D9"/>
<path d="M92.4039 166.014C91.2039 161.614 86.5706 158.18 84.4039 157.014C73.4039 149.514 56.4039 157.014 46.9039 168.514C37.4039 180.014 34.9039 191.514 36.4039 199.514C37.6039 205.914 43.9039 210.514 46.9039 212.014C57.2373 213.18 79.8039 211.814 87.4039 197.014C96.9039 178.514 93.9039 171.514 92.4039 166.014Z" fill="#BA949F" stroke="#BA949F"/>
<path d="M225.5 231L178 237L174 232V229.5L174.5 228L222 219L224.5 219.5L225.5 221.5V231Z" fill="#D9D9D9" stroke="#D9D9D9"/>
<path d="M225.5 231L178 237.5C178 244 192 262 209.5 259C223.5 256.6 226 239.333 225.5 231Z" fill="#B74A6B" stroke="#B74A6B"/>
<path d="M200 247C195.6 246.6 190.5 251.5 188.5 254C194.5 260.8 204 260.833 208 260C212.684 259.552 222.471 254.658 220 252C217.255 249.048 205.5 247.5 200 247Z" fill="#C9776F" stroke="#C9776F"/>
<path d="M112 124L130 113C136.5 118.167 149.6 128.1 150 126.5C150.5 124.5 182.5 124 175 128.5C167.5 133 162 133 159.5 134.5C157.5 135.7 149 135 145 134.5L141.5 132L112 124Z" fill="#551A41" stroke="#551A41"/>
<path d="M147 135L151 129.5L135 99.5L120.5 78L105 53.5L96.5 36L83 2L75.5 5.5L63 10.5H60.5L61.5 15.5L65.5 21.5L79 42.5L95.5 68.5L117.5 94.5L136.5 119.5L143 133.5L147 135Z" fill="#854B33" stroke="#854B33"/>
<path d="M117.5 71L148 115.5L151 131L122 84L105.5 59L94.5 37.5L82 5.5H79L71.5 13L68 14.5H62.5L73 31.5L88 55.5L102.5 73L130.5 111L143.5 134.5L139.5 131L128.5 112.5L99 76.5L85 58L69 33.5L57 9.5L83.5 1L89.5 16L98 35L110.5 59L117.5 71Z" fill="#6B2B3C" stroke="#6B2B3C"/>
</svg>
