<svg width="384" height="386" viewBox="0 0 384 386" fill="none" xmlns="http://www.w3.org/2000/svg">
<path d="M134.5 43.592L111 57.092L117 68.092L134.5 78.092L149 85.592L169 99.092C207.667 112.759 289.7 140.492 308.5 142.092C327.3 143.692 348 139.759 356 137.592C363.333 134.092 378.8 126.792 382 125.592C386 124.092 382.5 119.092 378 119.592C373.5 120.092 345 89.592 343 85.592C341 81.592 290 38.092 243 31.092C205.4 25.492 179.667 28.7587 171.5 31.092L151 36.592L134.5 43.592Z" fill="#A4D443"/>
<path d="M119 52L110.5 56.5L116 67L129 74.5L145 82.5L169 98L181.5 93.5C181.667 88.3333 181.8 76 183 76C184.5 76 232.151 53.6768 245 51C257 48.5 257 39.5 242.5 42.5C231.08 44.8628 208.333 53 198.5 57.5L186.5 62.5L177.5 68L170 74.5L166 81.5C149 72.5 118.633 61.5 124 61.5C130.5 61.5 150.833 54 161 51C165.167 50.1667 174.2 48.5 177 48.5H193C197.8 48.5 197.667 43 197 41L195 38C194 37.6667 191 37 187 37C183 37 172.667 37.6667 168 38L156 41L147.5 47L131.5 49.5L119 52Z" fill="#5E9D3E"/>
<path d="M230.5 87.5L214 86L224 79.5C230.833 74.6667 248.1 64 262.5 60C280.5 55 298.5 56.5 303.5 57C307.5 57.4 329.833 74.8333 340.5 83.5L332 88.5L324.5 96L313 108.5L303.5 116L316 129C323.948 132.264 339.317 138.019 345.928 138.667C348.387 138.209 349.518 138.048 348.5 138.5C347.966 138.737 347.08 138.78 345.928 138.667C337.517 140.231 313.577 145.256 307 141C300.2 136.6 284.167 115.833 277 106L285 108.5L293.5 110.5H296L301 108.5L317.5 90L329.5 78.5L324.5 73.5L310.5 67C307.333 65.5 298.4 63.1 288 65.5C275 68.5 256 69 230.5 87.5Z" fill="#5D9D3E"/>
<path d="M45.6234 136.325C69.6234 111.825 113.623 112.325 131.623 110.325C149.623 108.325 135.723 122.725 152.123 110.325C172.623 94.8252 207.938 81.5025 231.123 85.8252C277.039 94.3857 311.123 126.325 332.623 180.825C354.123 235.325 340.623 257.825 344.123 284.325C347.623 310.825 325.623 327.825 325.623 327.825C314.29 337.325 275.723 359.225 212.123 370.825C148.523 382.425 92.29 369.658 72.1233 361.825C49.9567 349.825 4.62337 312.825 0.623367 260.825C-4.37663 195.825 21.6234 160.825 45.6234 136.325Z" fill="#8A3D6E"/>
<path fill-rule="evenodd" clip-rule="evenodd" d="M0.977988 227C-0.149258 237.508 -0.348157 249.005 0.623394 261.635C4.62339 313.635 49.9567 350.635 72.1234 362.635C92.29 370.469 148.523 383.235 212.123 371.635C275.723 360.035 314.29 338.135 325.623 328.635C325.623 328.635 347.623 311.635 344.123 285.135C343.521 280.578 343.422 276.139 343.562 271.635C339.037 288.077 326.247 297.961 326.247 297.961C314.913 307.461 276.347 329.361 212.747 340.961C149.147 352.561 92.9134 339.794 72.7467 331.961C50.58 319.961 5.24675 282.961 1.24675 230.961C1.14422 229.628 1.05473 228.308 0.977988 227ZM344.762 231C345.402 239.579 345.137 247.082 344.689 254.009C343.726 246.314 344.177 238.939 344.762 231Z" fill="#672451"/>
<path d="M337.5 194.5C327.5 156.5 301.333 125 289.5 114L315.5 219.5L307 263.5L222 339C264.167 337.333 347.9 325.1 345.5 289.5C342.5 245 350 242 337.5 194.5Z" fill="#79335F"/>
<path d="M263.585 321.723C240.385 343.723 171.918 349.89 140.585 350.223C129.585 338.39 112.4 328.2 122 327C134 325.5 186 343 249.5 309C313 275 299.5 248 303.5 244.5C306.7 241.7 308.333 223 308 213.5L303.5 200.223L292.5 197.5C296.167 187.667 290.385 166.023 281.585 147.223C272.785 128.423 263.252 116.39 259.585 112.723C257.252 108.39 247.585 99.0233 227.585 96.2233C207.585 93.4233 181.918 103.723 171.585 109.223L190.085 119.723L185.085 132.723L152.585 135.223L113.085 123.223C96.7515 121.223 60.0849 123.223 44.0849 147.223C24.0849 177.223 1.08488 219.223 19.5849 252.723C34.3849 279.523 59.8333 303.167 74.5 309L61.5 325C52.8333 322.667 33.7849 305.023 16.5849 280.223C-0.615127 255.423 0.833333 230 1.5 220C3.5 208.833 7.88487 178.723 27.0849 150.723C46.2849 122.723 83.4182 113.723 99.5849 112.723H148.585C151.752 109.557 159.585 102.523 165.585 99.7233C173.085 96.2233 205.085 84.2233 225.585 86.2233C246.085 88.2233 269.585 96.2233 287.085 112.723C301.085 125.923 310.585 141.223 313.585 147.223C319.252 167.723 331.385 211.523 334.585 222.723C338.585 236.723 292.585 294.223 263.585 321.723Z" fill="#79325E"/>
<path d="M295.987 312.02C297.96 305.142 305.654 303.02 308.487 302.52C300.987 277.52 319.487 266.52 320.487 267.02C321.487 267.52 341.487 265.02 347.987 272.52C354.487 280.02 366.495 286.827 362.487 310.02C358.547 332.821 328.822 349.666 320.487 349.52C312.632 349.383 298.661 353.094 291.987 340.52C286.687 330.533 293.378 321.12 295.987 312.02Z" fill="#F8DAB6"/>
<path fill-rule="evenodd" clip-rule="evenodd" d="M291 338.169C291.254 338.842 291.559 339.517 291.919 340.195C297.393 350.509 307.777 349.866 315.668 349.377C317.397 349.27 319.007 349.171 320.419 349.195C328.753 349.341 358.479 332.496 362.419 309.695C365.783 290.228 357.864 282.305 351.389 275.827C350.77 275.208 350.164 274.602 349.583 274C353.478 279.682 356.107 287.477 353.906 300.215C349.966 323.016 320.241 339.861 311.906 339.715C310.494 339.691 308.885 339.79 307.156 339.898C302.144 340.208 296.126 340.581 291 338.169Z" fill="#FCA97E"/>
<path d="M63.6024 321.363C72.4582 307.739 85.3261 302.332 93.0683 300.821C97.204 299.585 107.406 298.511 113.602 307.363C122.002 319.363 121.102 331.03 119.602 335.363H127.102C131.902 335.363 135.436 340.696 136.602 343.363C141.436 353.53 148.202 375.363 136.602 381.363C122.102 388.863 99.1024 383.863 87.6024 376.863C76.1024 369.863 50.6024 341.363 63.6024 321.363Z" fill="#F8DAB6"/>
<path fill-rule="evenodd" clip-rule="evenodd" d="M67.7117 316C66.2753 317.653 64.896 319.468 63.6024 321.458C50.6024 341.458 76.1024 369.958 87.6024 376.958C99.1024 383.958 122.102 388.958 136.602 381.458C139.892 379.757 141.704 376.782 142.503 373.161C142.405 373.216 142.306 373.269 142.205 373.321C127.705 380.821 104.705 375.821 93.2048 368.821C82.2093 362.128 58.4153 335.78 67.7117 316Z" fill="#FFA77F"/>
<path d="M36.5 246.864C27.7 236.464 24.5 224.864 24 220.364C47.2 217.964 63.3333 228.03 68.5 233.364C71.1667 236.697 75.6 244.064 72 246.864C67.5 250.364 47.5 259.864 36.5 246.864Z" fill="#DC95AD"/>
<path d="M122.368 256.669C113.568 254.669 111.368 250.169 111.368 248.169C109.368 238.169 115.868 234.169 122.368 231.169C127.568 228.769 139.535 228.836 144.868 229.169C149.535 230.502 158.468 234.869 156.868 241.669C154.868 250.169 150.868 249.669 150.368 252.669C149.868 255.669 133.368 259.169 122.368 256.669Z" fill="#F9827E"/>
<path d="M104 206.222C104 222.622 112.667 230.722 117 232.722L144 228.722L152 223.722C154.667 217.889 157.5 203.222 147.5 191.222C137.5 179.222 124 180.222 118.5 182.222C113.667 183.389 104 189.822 104 206.222Z" fill="#58212E"/>
<path d="M121.017 196.034C115.817 196.434 114.851 201.867 115.017 204.534C119.417 208.934 124.184 203.701 126.017 200.534C126.517 198.867 126.217 195.634 121.017 196.034Z" fill="#F9FAFB"/>
<path d="M138.302 190.379C130.933 188.166 130.469 196.212 131.302 199.879C134.802 203.379 139.96 201.34 140.802 201.879C141.902 202.583 148.002 193.291 138.302 190.379Z" fill="#EDF2F0"/>
<path d="M257.604 206C250.004 206 243.438 212.667 241.104 216C240.271 218.333 239.104 223.5 241.104 225.5C243.604 228 249.604 234 261.104 232C272.604 230 277.604 225.5 280.104 224.5C282.604 223.5 284.604 218.5 282.104 213C279.604 207.5 267.104 206 257.604 206Z" fill="#F9827E"/>
<path d="M220.385 181.404C217.185 197.004 234.718 208.237 243.885 211.904C252.052 210.237 268.585 206.604 269.385 205.404C270.385 203.904 270.885 201.904 270.885 197.404C270.885 193.804 269.885 187.904 269.385 185.404C268.552 181.237 264.885 171.104 256.885 163.904C248.885 156.704 239.218 157.571 235.385 158.904C231.718 159.904 223.585 165.804 220.385 181.404Z" fill="#58212F"/>
<path d="M235.329 178.663C234.129 175.863 236.496 172.829 237.829 171.663C238.996 171.163 241.629 170.463 242.829 171.663C244.329 173.163 245.829 175.163 243.829 178.663C241.829 182.163 236.829 182.163 235.329 178.663Z" fill="#EFFAFA"/>
<path d="M251.523 170.137C247.523 170.537 246.856 173.97 247.023 175.637C249.523 179.637 251.531 181.317 253.523 181.137L253.534 181.136C254.848 181.017 261.018 180.459 259.523 175.637C257.867 170.298 256.523 169.637 251.523 170.137Z" fill="#EAECEB"/>
<path d="M91.4039 165.014C90.2039 160.614 85.5706 157.18 83.4039 156.014C72.4039 148.514 55.4039 156.014 45.9039 167.514C36.4039 179.014 33.9039 190.514 35.4039 198.514C36.6039 204.914 42.9039 209.514 45.9039 211.014C56.2373 212.18 78.8039 210.814 86.4039 196.014C95.9039 177.514 92.9039 170.514 91.4039 165.014Z" fill="#E6B7C7"/>
<path d="M224.5 230L177 236L173 231V228.5L173.5 227L221 218L223.5 218.5L224.5 220.5V230Z" fill="#FDF4DD"/>
<path d="M224.5 230L177 236.5C177 243 191 261 208.5 258C222.5 255.6 225 238.333 224.5 230Z" fill="#E05B7E"/>
<path d="M199 246C194.6 245.6 189.5 250.5 187.5 253C193.5 259.8 203 259.833 207 259C211.684 258.552 221.471 253.658 219 251C216.255 248.048 204.5 246.5 199 246Z" fill="#FA8F8E"/>
<path d="M111 123L129 112C135.5 117.167 148.6 127.1 149 125.5C149.5 123.5 181.5 123 174 127.5C166.5 132 161 132 158.5 133.5C156.5 134.7 148 134 144 133.5L140.5 131L111 123Z" fill="#5E214D"/>
<path d="M146 134L150 128.5L134 98.5L119.5 77L104 52.5L95.5 35L82 1L74.5 4.5L62 9.5H59.5L60.5 14.5L64.5 20.5L78 41.5L94.5 67.5L116.5 93.5L135.5 118.5L142 132.5L146 134Z" fill="#A55E4C"/>
<path d="M116.5 70L147 114.5L150 130L121 83L104.5 58L93.5 36.5L81 4.5H78L70.5 12L67 13.5H61.5L72 30.5L87 54.5L101.5 72L129.5 110L142.5 133.5L138.5 130L127.5 111.5L98 75.5L84 57L68 32.5L56 8.5L82.5 0L88.5 15L97 34L109.5 58L116.5 70Z" fill="#833449"/>
</svg>
