<svg width="596" height="567" viewBox="0 0 596 567" fill="none" xmlns="http://www.w3.org/2000/svg">
<path d="M550.5 426C549.3 401.2 555.333 389 558.5 386L201.5 439.5L40.5 389.5L30.5 429L40.5 465L197.5 528L434 499C478 491.833 565.3 476.8 562.5 474C559 470.5 552 457 550.5 426Z" fill="#CBA57A"/>
<path d="M560.5 381L565.5 374.5L433.5 389.5L293 415.5H201.5L147.5 402L106.5 389.5L82.5 374.5L41.5 370L20 381L14.5 434.5L46 492L141.5 530L204.5 540.5L236 536L326 521.5C358.5 517.333 429.9 508.1 455.5 504.5C481.1 500.9 544.833 487 573.5 480.5L560.5 469.5C526.333 476.5 443.4 492.7 385 501.5C326.6 510.3 234 518.5 195 521.5L175.5 517L161.5 509L102 484C79.1667 479.833 33.5 462.3 33.5 425.5C33.5 388.7 57.5 392.5 69.5 399L161.5 439L179.5 444.5H190H214.5L271.5 439L414 415.5L458 408L556 389.5L560.5 381Z" fill="#CD8363" stroke="#CD8363"/>
<path d="M95 378.5L154.5 360.5L348 317L457 339.5C479.667 343.5 531.3 351.1 556.5 349.5C581.7 347.9 587 356.167 586.5 360.5L565.5 373L423 399.5L290 422.5L161 419.5L107.5 402.5L95 378.5Z" fill="#089E82" stroke="#089E82"/>
<path d="M502 333L466 324.5L278 312L243 385H249.5H271L278 390L284 396L323.5 390L374 376L429 364L481.5 360L489 364L510.5 360L588 348.5L533.5 338L502 333Z" fill="#007B62" stroke="#058168"/>
<path d="M116.5 375L176.5 363L140.5 339C104 342.167 29.1 350.8 21.5 360C13.9 369.2 4.66666 387.167 1 395V441V455L7 473.5L31 498L82 519L122.5 535L155 551.5L172.5 558.5L188.5 561.5L217.5 558.5L313 545L361 540L413.5 532L465.5 525.5H484L545 516L588 504.5C589.333 502.5 592.5 497.7 594.5 494.5C597 490.5 586.5 472 574.5 479C564.9 484.6 489.833 497.333 453.5 503L328 519C287.167 525.833 202.1 538.6 188.5 535C171.5 530.5 176.5 530 163.5 522C150.5 514 52.5 495 36 466C22.8 442.8 27.1667 409 31 395L36 382L41 378.5L52.5 382L180 430.5H193.5H217.5L293 423C315.167 417.833 370.3 406.1 413.5 400.5C467.5 393.5 572.5 375 584 366.5C593.2 359.7 590.5 351.667 588 348.5L505.5 366.5L445.5 378.5L388.5 388.5L350.5 395L280 404.5L221 407.5H188.5L116.5 375Z" fill="#0A7C64" stroke="#0A7C64"/>
<path d="M134 394.5C124.4 377.7 132.667 366.833 138 363.5L116 359L103.5 376.5C117.667 389.5 143.6 411.3 134 394.5Z" fill="#0A7C64" stroke="#0A7C64"/>
<path d="M113.5 445L96.5 437C83.7 430.6 85.5 436.667 88 440.5L107 448.5C117.667 453.167 140.7 462 147.5 460C154.3 458 150.333 455.5 147.5 454.5L137 453.5L127 450.5L113.5 445Z" fill="#D07E50" stroke="#D07E50"/>
<path d="M63.5 449L54.5 442C52.8333 442.333 50.5 443.8 54.5 447C58.5 450.2 65.5 454.333 68.5 456L101.5 472L121.5 480C123.333 481.667 127.9 485.2 131.5 486C135.1 486.8 134.333 484.333 133.5 483L130.5 481L123.5 476.5L112.5 472L84.5 458.5L63.5 449Z" fill="#D07E50" stroke="#D07E50"/>
<path d="M259 455L199 460.5C194.5 460.913 189 465.5 200 466C208.8 466.4 227 464.5 235 463.5C250.333 462.667 282.3 460.1 287.5 456.5C292.7 452.9 288.667 451.667 286 451.5L274 453L259 455Z" fill="#D07E50" stroke="#D07E50"/>
<path d="M277.429 464.5L217.429 470C212.929 470.413 207.429 475 218.429 475.5C227.229 475.9 245.429 474 253.429 473C268.762 472.167 300.729 469.6 305.929 466C311.129 462.4 307.096 461.167 304.429 461L292.429 462.5L277.429 464.5Z" fill="#D07E50" stroke="#D07E50"/>
<path d="M350 436L307.5 444C303 444.413 300.429 450 311.429 450.5C320.229 450.9 338.429 449 346.429 448C361.762 447.167 360.8 447.6 366 444C371.2 440.4 368.667 436.844 366 436.677L350 436Z" fill="#D07E50"/>
<path d="M307.5 444L350 436L385.429 437.5L366 436.677C368.667 436.844 371.2 440.4 366 444C360.8 447.6 361.762 447.167 346.429 448C338.429 449 320.229 450.9 311.429 450.5C300.429 450 303 444.412 307.5 444Z" stroke="#D07E50"/>
<path d="M252.429 487.5L192.429 493C187.929 493.413 182.429 498 193.429 498.5C202.229 498.9 220.429 497 228.429 496C285 493 343.8 485.6 349 482C354.2 478.4 348.667 475.667 346 475.5L267.429 485.5L252.429 487.5Z" fill="#D07E50" stroke="#D07E50"/>
<path d="M486.429 415.5L426.429 421C421.929 421.413 416.429 426 427.429 426.5C436.229 426.9 454.429 425 462.429 424C477.762 423.167 509.729 420.6 514.929 417C520.129 413.4 516.096 412.167 513.429 412L501.429 413.5L486.429 415.5Z" fill="#D07E50" stroke="#D07E50"/>
<path d="M509.429 453.5L449.429 459C444.929 459.413 439.429 464 450.429 464.5C459.229 464.9 477.429 463 485.429 462C500.762 461.167 532.729 458.6 537.929 455C543.129 451.4 539.096 450.167 536.429 450L524.429 451.5L509.429 453.5Z" fill="#D07E50" stroke="#D07E50"/>
<path d="M454.429 438.5L394.429 444C389.929 444.413 384.429 449 395.429 449.5C404.229 449.9 422.429 448 430.429 447C445.762 446.167 477.729 443.6 482.929 440C488.129 436.4 484.096 435.167 481.429 435L469.429 436.5L454.429 438.5Z" fill="#D07E50" stroke="#D07E50"/>
<path d="M361.5 510L368 441.5L376 425.5H394L416 511L388 566C377.333 571.833 383.5 513.9 385.5 503.5C388 490.5 383.5 472 383 482C382.6 490 380.5 499.667 379.5 503.5L361.5 510Z" fill="#CC5951"/>
<path d="M363 509.5C370.2 485.9 372.333 454.667 372.5 442L344 432L346 480.5C338.167 507.5 327.2 565.9 336 561.5C347 556 354 539 363 509.5Z" fill="#CD645A" stroke="#CD645A"/>
<path d="M342 469L340 429.5L401 419L406.5 438.5C409.7 463.7 416.833 488 420 497L412.5 532.5L399.5 549.5L391 557L404.5 534.5L409.5 498.5L401 466L399.5 444C392.7 430.8 383 427.167 379 427C387.8 450.6 385.667 463.833 383.5 467.5C369.9 439.1 353.167 433.333 346.5 434C346.5 475 347.5 453 348.5 473.5C349.3 489.9 344.5 502.667 342 507C339.667 523.667 336.2 561.5 335 561.5C333.8 561.5 329.333 549.333 328 545.5V532.5C330.333 523.5 335.7 503.4 338.5 495C341.3 486.6 342 474.167 342 469Z" fill="#AF434B" stroke="#AF434B"/>
<path d="M240.5 44.592L217 58.092L223 69.092L240.5 79.092L255 86.592L275 100.092C313.667 113.759 395.7 141.492 414.5 143.092C433.3 144.692 454 140.759 462 138.592C469.333 135.092 484.8 127.792 488 126.592C492 125.092 488.5 120.092 484 120.592C479.5 121.092 451 90.592 449 86.592C447 82.592 396 39.092 349 32.092C311.4 26.492 285.667 29.7587 277.5 32.092L257 37.592L240.5 44.592Z" fill="#83AA34" stroke="#83AA34"/>
<path d="M225 53L216.5 57.5L222 68L235 75.5L251 83.5L275 99L287.5 94.5C287.667 89.3333 287.8 77 289 77C290.5 77 338.151 54.6768 351 52C363 49.5 363 40.5 348.5 43.5C337.08 45.8628 314.333 54 304.5 58.5L292.5 63.5L283.5 69L276 75.5L272 82.5C255 73.5 224.633 62.5 230 62.5C236.5 62.5 256.833 55 267 52C271.167 51.1667 280.2 49.5 283 49.5H299C303.8 49.5 303.667 44 303 42L301 39C300 38.6667 297 38 293 38C289 38 278.667 38.6667 274 39L262 42L253.5 48L237.5 50.5L225 53Z" fill="#508135" stroke="#497F32"/>
<path d="M336.5 88.5L320 87L330 80.5C336.833 75.6667 354.1 65 368.5 61C386.5 56 404.5 57.5 409.5 58C413.5 58.4 435.833 75.8333 446.5 84.5L438 89.5L430.5 97L419 109.5L409.5 117L422 130C429.948 133.264 445.317 139.019 451.928 139.667C454.387 139.209 455.518 139.048 454.5 139.5C453.966 139.737 453.08 139.78 451.928 139.667C443.517 141.231 419.577 146.256 413 142C406.2 137.6 390.167 116.833 383 107L391 109.5L399.5 111.5H402L407 109.5L423.5 91L435.5 79.5L430.5 74.5L416.5 68C413.333 66.5 404.4 64.1 394 66.5C381 69.5 362 70 336.5 88.5Z" fill="#4A8136"/>
<path d="M336.5 88.5L320 87L330 80.5C336.833 75.6667 354.1 65 368.5 61C386.5 56 404.5 57.5 409.5 58C413.5 58.4 435.833 75.8333 446.5 84.5L438 89.5L430.5 97L419 109.5L409.5 117L422 130C431.333 133.833 450.9 141.1 454.5 139.5C459 137.5 421.5 147.5 413 142C406.2 137.6 390.167 116.833 383 107L391 109.5L399.5 111.5H402L407 109.5L423.5 91L435.5 79.5L430.5 74.5L416.5 68C413.333 66.5 404.4 64.1 394 66.5C381 69.5 362 70 336.5 88.5Z" stroke="#497F32"/>
<path d="M151.623 137.325C175.623 112.825 219.623 113.325 237.623 111.325C255.623 109.325 241.723 123.725 258.123 111.325C278.623 95.8252 313.938 82.5025 337.123 86.8252C383.039 95.3857 417.123 127.325 438.623 181.825C460.123 236.325 446.623 258.825 450.123 285.325C453.623 311.825 431.623 328.825 431.623 328.825C420.29 338.325 381.723 360.225 318.123 371.825C254.523 383.425 198.29 370.658 178.123 362.825C155.957 350.825 110.623 313.825 106.623 261.825C101.623 196.825 127.623 161.825 151.623 137.325Z" fill="#712F58" stroke="#712F58"/>
<path fill-rule="evenodd" clip-rule="evenodd" d="M106.978 228C105.851 238.508 105.652 250.005 106.623 262.635C110.623 314.635 155.957 351.635 178.123 363.635C198.29 371.469 254.523 384.235 318.123 372.635C381.723 361.035 420.29 339.135 431.623 329.635C431.623 329.635 453.623 312.635 450.123 286.135C449.521 281.578 449.422 277.139 449.562 272.635C445.037 289.077 432.247 298.961 432.247 298.961C420.913 308.461 382.347 330.361 318.747 341.961C255.147 353.561 198.913 340.794 178.747 332.961C156.58 320.961 111.247 283.961 107.247 231.961C107.144 230.628 107.055 229.308 106.978 228ZM450.762 232C451.402 240.579 451.137 248.082 450.689 255.009C449.726 247.314 450.177 239.939 450.762 232Z" fill="#531B41"/>
<path d="M106.623 262.635L106.125 262.674L106.623 262.635ZM106.978 228L107.477 227.971L106.481 227.947L106.978 228ZM178.123 363.635L177.885 364.075L177.913 364.09L177.942 364.101L178.123 363.635ZM431.623 329.635L431.318 329.24L431.31 329.246L431.302 329.252L431.623 329.635ZM450.123 286.135L449.628 286.201L449.628 286.201L450.123 286.135ZM449.562 272.635L450.061 272.65L449.079 272.502L449.562 272.635ZM432.247 298.961L431.941 298.565L431.933 298.571L431.926 298.578L432.247 298.961ZM178.747 332.961L178.509 333.4L178.536 333.415L178.566 333.427L178.747 332.961ZM107.247 231.961L107.745 231.922L107.745 231.922L107.247 231.961ZM450.762 232L451.261 231.963L450.263 231.963L450.762 232ZM450.689 255.009L450.193 255.072L451.188 255.042L450.689 255.009ZM107.122 262.597C106.153 249.995 106.351 238.529 107.475 228.053L106.481 227.947C105.35 238.487 105.151 250.015 106.125 262.674L107.122 262.597ZM178.361 363.196C167.329 357.224 150.504 345.012 135.942 327.812C121.382 310.614 109.111 288.46 107.122 262.597L106.125 262.674C108.135 288.811 120.532 311.157 135.179 328.459C149.826 345.759 166.751 358.047 177.885 364.075L178.361 363.196ZM318.034 372.144C254.535 383.725 198.395 370.973 178.304 363.169L177.942 364.101C198.185 371.964 254.512 384.746 318.213 373.127L318.034 372.144ZM431.302 329.252C420.053 338.682 381.574 360.554 318.034 372.144L318.213 373.127C381.873 361.516 420.527 339.589 431.945 330.019L431.302 329.252ZM449.628 286.201C451.357 299.293 446.79 310.046 441.77 317.545C439.261 321.293 436.643 324.221 434.653 326.212C433.658 327.206 432.821 327.966 432.234 328.476C431.941 328.731 431.71 328.923 431.553 329.051C431.475 329.115 431.415 329.163 431.375 329.194C431.356 329.21 431.341 329.222 431.331 329.229C431.326 329.233 431.323 329.236 431.32 329.238C431.319 329.239 431.318 329.239 431.318 329.24C431.318 329.24 431.318 329.24 431.318 329.24C431.318 329.24 431.318 329.24 431.623 329.635C431.929 330.031 431.929 330.031 431.93 330.031C431.93 330.03 431.93 330.03 431.931 330.03C431.932 330.029 431.933 330.028 431.934 330.027C431.937 330.025 431.942 330.021 431.948 330.017C431.959 330.008 431.976 329.995 431.997 329.977C432.041 329.943 432.104 329.892 432.186 329.825C432.35 329.691 432.588 329.492 432.89 329.231C433.492 328.707 434.347 327.932 435.36 326.919C437.385 324.893 440.048 321.915 442.601 318.101C447.707 310.474 452.39 299.478 450.619 286.07L449.628 286.201ZM449.062 272.619C448.922 277.141 449.021 281.608 449.628 286.201L450.619 286.07C450.022 281.547 449.923 277.137 450.061 272.65L449.062 272.619ZM449.079 272.502C446.842 280.634 442.557 287.153 438.823 291.644C436.957 293.888 435.232 295.622 433.975 296.794C433.347 297.379 432.836 297.824 432.483 298.122C432.306 298.27 432.17 298.382 432.078 298.457C432.032 298.494 431.997 298.521 431.974 298.539C431.962 298.548 431.954 298.555 431.948 298.559C431.946 298.562 431.944 298.563 431.942 298.564C431.942 298.565 431.941 298.565 431.941 298.565C431.941 298.565 431.941 298.565 431.941 298.565C431.941 298.565 431.941 298.565 432.247 298.961C432.552 299.356 432.553 299.356 432.553 299.356C432.553 299.356 432.553 299.356 432.554 299.356C432.554 299.355 432.555 299.355 432.556 299.354C432.558 299.352 432.56 299.35 432.564 299.348C432.571 299.342 432.58 299.335 432.593 299.324C432.619 299.304 432.656 299.274 432.705 299.235C432.803 299.156 432.945 299.04 433.127 298.886C433.492 298.579 434.015 298.123 434.657 297.525C435.939 296.33 437.695 294.565 439.592 292.283C443.384 287.722 447.757 281.078 450.044 272.767L449.079 272.502ZM431.926 298.578C420.676 308.007 382.198 329.88 318.657 341.469L318.836 342.453C382.496 330.842 421.151 308.914 432.568 299.344L431.926 298.578ZM318.657 341.469C255.158 353.05 199.018 340.299 178.928 332.495L178.566 333.427C198.808 341.29 255.135 354.071 318.836 342.453L318.657 341.469ZM178.985 332.521C167.953 326.549 151.127 314.337 136.566 297.138C122.005 279.939 109.735 257.785 107.745 231.922L106.748 231.999C108.759 258.136 121.155 280.482 135.803 297.784C150.449 315.084 167.374 327.373 178.509 333.4L178.985 332.521ZM107.745 231.922C107.643 230.593 107.554 229.275 107.477 227.971L106.479 228.029C106.556 229.34 106.645 230.663 106.748 231.999L107.745 231.922ZM450.263 232.037C450.901 240.584 450.637 248.061 450.19 254.977L451.188 255.042C451.637 248.103 451.903 240.575 451.261 231.963L450.263 232.037ZM450.263 231.963C449.679 239.901 449.223 247.321 450.193 255.072L451.185 254.947C450.229 247.307 450.676 239.978 451.261 232.037L450.263 231.963Z" fill="#551C42"/>
<path d="M443.5 195.5C433.5 157.5 407.333 126 395.5 115L421.5 220.5L413 264.5L328 340C370.167 338.333 453.9 326.1 451.5 290.5C448.5 246 456 243 443.5 195.5Z" fill="#5D264B" stroke="#5D264B"/>
<path d="M369.585 322.723C346.385 344.723 277.918 350.89 246.585 351.223C235.585 339.39 218.4 329.2 228 328C240 326.5 292 344 355.5 310C419 276 405.5 249 409.5 245.5C412.7 242.7 414.333 224 414 214.5L409.5 201.223L398.5 198.5C402.167 188.667 396.385 167.023 387.585 148.223C378.785 129.423 369.252 117.39 365.585 113.723C363.252 109.39 353.585 100.023 333.585 97.2233C313.585 94.4233 287.918 104.723 277.585 110.223L296.085 120.723L291.085 133.723L258.585 136.223L219.085 124.223C202.752 122.223 166.085 124.223 150.085 148.223C130.085 178.223 107.085 220.223 125.585 253.723C140.385 280.523 165.833 304.167 180.5 310L167.5 326C158.833 323.667 139.785 306.023 122.585 281.223C105.385 256.423 106.833 231 107.5 221C109.5 209.833 113.885 179.723 133.085 151.723C152.285 123.723 189.418 114.723 205.585 113.723H254.585C257.752 110.557 265.585 103.523 271.585 100.723C279.085 97.2233 311.085 85.2233 331.585 87.2233C352.085 89.2233 375.585 97.2233 393.085 113.723C407.085 126.923 416.585 142.223 419.585 148.223C425.252 168.723 437.385 212.523 440.585 223.723C444.585 237.723 398.585 295.223 369.585 322.723Z" fill="#632B50" stroke="#642B4F"/>
<path d="M401.987 313.02C403.96 306.142 411.654 304.02 414.487 303.52C406.987 278.52 425.487 267.52 426.487 268.02C427.487 268.52 447.487 266.02 453.987 273.52C460.487 281.02 472.495 287.827 468.487 311.02C464.547 333.821 434.822 350.666 426.487 350.52C418.632 350.383 404.661 354.094 397.987 341.52C392.687 331.533 399.378 322.12 401.987 313.02Z" fill="#CEB297" stroke="#CEB297"/>
<path fill-rule="evenodd" clip-rule="evenodd" d="M397 339.169C397.254 339.842 397.559 340.517 397.919 341.195C403.393 351.509 413.777 350.866 421.668 350.377C423.397 350.27 425.007 350.171 426.419 350.195C434.753 350.341 464.479 333.496 468.419 310.695C471.783 291.228 463.864 283.305 457.389 276.827C456.77 276.208 456.164 275.602 455.583 275C459.478 280.682 462.107 288.477 459.906 301.215C455.966 324.016 426.241 340.861 417.906 340.715C416.494 340.691 414.885 340.79 413.156 340.898C408.144 341.208 402.126 341.581 397 339.169Z" fill="#C9926C"/>
<path d="M397.919 341.195L397.477 341.43L397.477 341.43L397.919 341.195ZM397 339.169L397.213 338.717L396.096 338.191L396.532 339.346L397 339.169ZM421.668 350.377L421.699 350.876L421.699 350.876L421.668 350.377ZM426.419 350.195L426.428 349.695L426.428 349.695L426.419 350.195ZM468.419 310.695L468.912 310.78L468.912 310.78L468.419 310.695ZM457.389 276.827L457.035 277.181L457.035 277.181L457.389 276.827ZM455.583 275L455.942 274.653L455.17 275.283L455.583 275ZM459.906 301.215L460.399 301.301L460.399 301.301L459.906 301.215ZM417.906 340.715L417.915 340.216L417.915 340.216L417.906 340.715ZM413.156 340.898L413.187 341.397L413.156 340.898ZM398.361 340.961C398.01 340.301 397.714 339.645 397.468 338.992L396.532 339.346C396.794 340.039 397.108 340.733 397.477 341.43L398.361 340.961ZM421.637 349.878C417.678 350.124 413.188 350.398 409.008 349.352C404.86 348.314 401.022 345.976 398.361 340.961L397.477 341.43C400.29 346.728 404.381 349.225 408.766 350.322C413.12 351.412 417.767 351.12 421.699 350.876L421.637 349.878ZM426.428 349.695C424.992 349.67 423.361 349.772 421.637 349.878L421.699 350.876C423.434 350.769 425.022 350.671 426.41 350.695L426.428 349.695ZM467.926 310.61C465.987 321.833 457.683 331.646 448.758 338.657C444.303 342.156 439.714 344.941 435.728 346.84C431.719 348.749 428.388 349.73 426.428 349.695L426.41 350.695C428.617 350.734 432.127 349.663 436.158 347.743C440.213 345.811 444.865 342.987 449.376 339.443C458.382 332.368 466.911 322.358 468.912 310.78L467.926 310.61ZM457.035 277.181C460.277 280.424 463.812 283.966 466.138 289.097C468.459 294.215 469.594 300.958 467.926 310.61L468.912 310.78C470.608 300.965 469.465 294.014 467.049 288.684C464.638 283.367 460.976 279.709 457.743 276.474L457.035 277.181ZM455.223 275.347C455.808 275.953 456.417 276.562 457.035 277.181L457.743 276.474C457.123 275.854 456.52 275.251 455.942 274.653L455.223 275.347ZM455.17 275.283C458.986 280.849 461.594 288.511 459.413 301.13L460.399 301.301C462.62 288.444 459.969 280.514 455.995 274.717L455.17 275.283ZM459.413 301.13C457.474 312.353 449.17 322.166 440.245 329.177C435.791 332.677 431.202 335.461 427.216 337.36C423.206 339.27 419.875 340.25 417.915 340.216L417.897 341.215C420.104 341.254 423.614 340.183 427.646 338.263C431.7 336.331 436.352 333.507 440.863 329.963C449.87 322.888 458.398 312.879 460.399 301.301L459.413 301.13ZM417.915 340.216C416.479 340.19 414.848 340.292 413.125 340.399L413.187 341.397C414.921 341.289 416.509 341.191 417.897 341.215L417.915 340.216ZM413.125 340.399C408.087 340.711 402.204 341.064 397.213 338.717L396.787 339.621C402.049 342.097 408.2 341.705 413.187 341.397L413.125 340.399Z" fill="#C9926C"/>
<path d="M169.602 322.363C178.458 308.739 191.326 303.332 199.068 301.821C203.204 300.585 213.406 299.511 219.602 308.363C228.002 320.363 227.102 332.03 225.602 336.363H233.102C237.902 336.363 241.436 341.696 242.602 344.363C247.436 354.53 254.202 376.363 242.602 382.363C228.102 389.863 205.102 384.863 193.602 377.863C182.102 370.863 156.602 342.363 169.602 322.363Z" fill="#CEB297"/>
<path d="M202.602 301.363C195.936 301.696 180.002 306.363 169.602 322.363C156.602 342.363 182.102 370.863 193.602 377.863C205.102 384.863 228.102 389.863 242.602 382.363C254.202 376.363 247.436 354.53 242.602 344.363C241.436 341.696 237.902 336.363 233.102 336.363C228.302 336.363 226.102 336.363 225.602 336.363C227.102 332.03 228.002 320.363 219.602 308.363C209.102 293.363 187.102 306.863 202.602 301.363Z" stroke="#CEB297"/>
<path fill-rule="evenodd" clip-rule="evenodd" d="M173.712 317C172.275 318.653 170.896 320.468 169.602 322.458C156.602 342.458 182.102 370.958 193.602 377.958C205.102 384.958 228.102 389.958 242.602 382.458C245.892 380.757 247.704 377.782 248.503 374.161C248.405 374.216 248.306 374.269 248.205 374.321C233.705 381.821 210.705 376.821 199.205 369.821C188.209 363.128 164.415 336.78 173.712 317Z" fill="#C9926C"/>
<path d="M169.602 322.458L170.022 322.731L169.602 322.458ZM173.712 317L174.164 317.213L173.334 316.672L173.712 317ZM193.602 377.958L193.862 377.531L193.862 377.531L193.602 377.958ZM242.602 382.458L242.373 382.014L242.373 382.014L242.602 382.458ZM248.503 374.161L248.991 374.269L249.23 373.185L248.26 373.724L248.503 374.161ZM248.205 374.321L247.975 373.877L247.975 373.877L248.205 374.321ZM199.205 369.821L199.465 369.394L199.465 369.394L199.205 369.821ZM170.022 322.731C171.302 320.76 172.668 318.964 174.089 317.328L173.334 316.672C171.883 318.342 170.49 320.176 169.183 322.186L170.022 322.731ZM193.862 377.531C188.191 374.079 178.996 365.267 172.846 354.829C166.686 344.376 163.682 332.483 170.022 322.731L169.183 322.186C162.522 332.433 165.769 344.79 171.984 355.337C178.208 365.899 187.514 374.837 193.342 378.385L193.862 377.531ZM242.373 382.014C235.249 385.698 225.991 386.33 217.043 385.15C208.1 383.97 199.544 380.989 193.862 377.531L193.342 378.385C199.161 381.927 207.855 384.946 216.912 386.141C225.964 387.336 235.455 386.718 242.832 382.902L242.373 382.014ZM248.015 374.054C247.239 377.571 245.496 380.398 242.373 382.014L242.832 382.902C246.287 381.115 248.17 377.993 248.991 374.269L248.015 374.054ZM248.26 373.724C248.166 373.776 248.071 373.827 247.975 373.877L248.435 374.765C248.54 374.711 248.643 374.655 248.746 374.598L248.26 373.724ZM247.975 373.877C240.852 377.561 231.593 378.194 222.645 377.013C213.702 375.833 205.146 372.852 199.465 369.394L198.945 370.248C204.764 373.79 213.457 376.809 222.514 378.004C231.566 379.199 241.058 378.581 248.435 374.765L247.975 373.877ZM199.465 369.394C194.043 366.094 185.399 357.894 179.273 348.054C173.137 338.198 169.628 326.864 174.164 317.213L173.259 316.787C168.499 326.916 172.238 338.646 178.424 348.583C184.62 358.535 193.371 366.855 198.945 370.248L199.465 369.394Z" fill="#C9926C"/>
<path d="M142.5 247.864C133.7 237.464 130.5 225.864 130 221.364C153.2 218.964 169.333 229.03 174.5 234.364C177.167 237.697 181.6 245.064 178 247.864C173.5 251.364 153.5 260.864 142.5 247.864Z" fill="#B27A8C" stroke="#B27A8C"/>
<path d="M228.368 257.669C219.568 255.669 217.368 251.169 217.368 249.169C215.368 239.169 221.868 235.169 228.368 232.169C233.568 229.769 245.535 229.836 250.868 230.169C255.535 231.502 264.468 235.869 262.868 242.669C260.868 251.169 256.868 250.669 256.368 253.669C255.868 256.669 239.368 260.169 228.368 257.669Z" fill="#CB6965" stroke="#CB6965"/>
<path d="M210 207.222C210 223.622 218.667 231.722 223 233.722L250 229.722L258 224.722C260.667 218.889 263.5 204.222 253.5 192.222C243.5 180.222 230 181.222 224.5 183.222C219.667 184.389 210 190.822 210 207.222Z" fill="#491B26" stroke="#491B26"/>
<path d="M227.017 197.034C221.817 197.434 220.851 202.867 221.017 205.534C225.417 209.934 230.184 204.701 232.017 201.534C232.517 199.867 232.217 196.634 227.017 197.034Z" fill="#D9D9D9" stroke="#D9D9D9"/>
<path d="M244.302 191.379C236.933 189.166 236.469 197.212 237.302 200.879C240.802 204.379 245.96 202.34 246.802 202.879C247.902 203.583 254.002 194.291 244.302 191.379Z" fill="#D9D9D9" stroke="#D9D9D9"/>
<path d="M363.604 207C356.004 207 349.438 213.667 347.104 217C346.271 219.333 345.104 224.5 347.104 226.5C349.604 229 355.604 235 367.104 233C378.604 231 383.604 226.5 386.104 225.5C388.604 224.5 390.604 219.5 388.104 214C385.604 208.5 373.104 207 363.604 207Z" fill="#CB6965" stroke="#CB6965"/>
<path d="M326.385 182.404C323.185 198.004 340.718 209.237 349.885 212.904C358.052 211.237 374.585 207.604 375.385 206.404C376.385 204.904 376.885 202.904 376.885 198.404C376.885 194.804 375.885 188.904 375.385 186.404C374.552 182.237 370.885 172.104 362.885 164.904C354.885 157.704 345.218 158.571 341.385 159.904C337.718 160.904 329.585 166.804 326.385 182.404Z" fill="#491B26" stroke="#491B26"/>
<path d="M341.329 179.663C340.129 176.863 342.496 173.829 343.829 172.663C344.996 172.163 347.629 171.463 348.829 172.663C350.329 174.163 351.829 176.163 349.829 179.663C347.829 183.163 342.829 183.163 341.329 179.663Z" fill="#D9D9D9" stroke="#D9D9D9"/>
<path d="M357.523 171.137C353.523 171.537 352.856 174.97 353.023 176.637C355.523 180.637 357.531 182.317 359.523 182.137L359.534 182.136C360.848 182.017 367.018 181.459 365.523 176.637C363.867 171.298 362.523 170.637 357.523 171.137Z" fill="#D9D9D9" stroke="#D9D9D9"/>
<path d="M197.404 166.014C196.204 161.614 191.571 158.18 189.404 157.014C178.404 149.514 161.404 157.014 151.904 168.514C142.404 180.014 139.904 191.514 141.404 199.514C142.604 205.914 148.904 210.514 151.904 212.014C162.237 213.18 184.804 211.814 192.404 197.014C201.904 178.514 198.904 171.514 197.404 166.014Z" fill="#BA949F" stroke="#BA949F"/>
<path d="M330.5 231L283 237L279 232V229.5L279.5 228L327 219L329.5 219.5L330.5 221.5V231Z" fill="#D9D9D9" stroke="#D9D9D9"/>
<path d="M330.5 231L283 237.5C283 244 297 262 314.5 259C328.5 256.6 331 239.333 330.5 231Z" fill="#B74A6B" stroke="#B74A6B"/>
<path d="M305 247C300.6 246.6 295.5 251.5 293.5 254C299.5 260.8 309 260.833 313 260C317.684 259.552 327.471 254.658 325 252C322.255 249.048 310.5 247.5 305 247Z" fill="#C9776F" stroke="#C9776F"/>
<path d="M217 124L235 113C241.5 118.167 254.6 128.1 255 126.5C255.5 124.5 287.5 124 280 128.5C272.5 133 267 133 264.5 134.5C262.5 135.7 254 135 250 134.5L246.5 132L217 124Z" fill="#551A41" stroke="#551A41"/>
<path d="M252 135L256 129.5L240 99.5L225.5 78L210 53.5L201.5 36L188 2L180.5 5.5L168 10.5H165.5L166.5 15.5L170.5 21.5L184 42.5L200.5 68.5L222.5 94.5L241.5 119.5L248 133.5L252 135Z" fill="#854B33" stroke="#854B33"/>
<path d="M222.5 71L253 115.5L256 131L227 84L210.5 59L199.5 37.5L187 5.5H184L176.5 13L173 14.5H167.5L178 31.5L193 55.5L207.5 73L235.5 111L248.5 134.5L244.5 131L233.5 112.5L204 76.5L190 58L174 33.5L162 9.5L188.5 1L194.5 16L203 35L215.5 59L222.5 71Z" fill="#6B2B3C" stroke="#6B2B3C"/>
</svg>
