<svg width="594" height="566" viewBox="0 0 594 566" fill="none" xmlns="http://www.w3.org/2000/svg">
<path d="M549.5 425C548.3 400.2 554.333 388 557.5 385L200.5 438.5L39.5 388.5L29.5 428L39.5 464L196.5 527L433 498C477 490.833 564.3 475.8 561.5 473C558 469.5 551 456 549.5 425Z" fill="#FBD19D"/>
<path d="M559.5 380L564.5 373.5L432.5 388.5L292 414.5H200.5L146.5 401L105.5 388.5L81.5 373.5L40.5 369L19 380L13.5 433.5L45 491L140.5 529L203.5 539.5L235 535L325 520.5C357.5 516.333 428.9 507.1 454.5 503.5C480.1 499.9 543.833 486 572.5 479.5L559.5 468.5C525.333 475.5 442.4 491.7 384 500.5C325.6 509.3 233 517.5 194 520.5L174.5 516L160.5 508L101 483C78.1667 478.833 32.5 461.3 32.5 424.5C32.5 387.7 56.5 391.5 68.5 398L160.5 438L178.5 443.5H189H213.5L270.5 438L413 414.5L457 407L555 388.5L559.5 380Z" fill="#F59670"/>
<path d="M94 377.5L153.5 359.5L347 316L456 338.5C478.667 342.5 530.3 350.1 555.5 348.5C580.7 346.9 586 355.167 585.5 359.5L564.5 372L422 398.5L289 421.5L160 418.5L106.5 401.5L94 377.5Z" fill="#00C2A0"/>
<path d="M501 332L465 323.5L277 311L242 384H248.5H270L277 389L283 395L322.5 389L373 375L428 363L480.5 359L488 363L509.5 359L587 347.5L532.5 337L501 332Z" fill="#00997C"/>
<path d="M115.5 374L175.5 362L139.5 338C103 341.167 28.1 349.8 20.5 359C12.9 368.2 3.66666 386.167 0 394V440V454L6 472.5L30 497L81 518L121.5 534L154 550.5L171.5 557.5L187.5 560.5L216.5 557.5L312 544L360 539L412.5 531L464.5 524.5H483L544 515L587 503.5C588.333 501.5 591.5 496.7 593.5 493.5C596 489.5 585.5 471 573.5 478C563.9 483.6 488.833 496.333 452.5 502L327 518C286.167 524.833 201.1 537.6 187.5 534C170.5 529.5 175.5 529 162.5 521C149.5 513 51.5 494 35 465C21.8 441.8 26.1667 408 30 394L35 381L40 377.5L51.5 381L179 429.5H192.5H216.5L292 422C314.167 416.833 369.3 405.1 412.5 399.5C466.5 392.5 571.5 374 583 365.5C592.2 358.7 589.5 350.667 587 347.5L504.5 365.5L444.5 377.5L387.5 387.5L349.5 394L279 403.5L220 406.5H187.5L115.5 374Z" fill="#009570"/>
<path d="M133 393.5C123.4 376.7 131.667 365.833 137 362.5L115 358L102.5 375.5C116.667 388.5 142.6 410.3 133 393.5Z" fill="#009570"/>
<path d="M112.5 444L95.5 436C82.7 429.6 84.5 435.667 87 439.5L106 447.5C116.667 452.167 139.7 461 146.5 459C153.3 457 149.333 454.5 146.5 453.5L136 452.5L126 449.5L112.5 444Z" fill="#EF9D67"/>
<path d="M62.5 448L53.5 441C51.8333 441.333 49.5 442.8 53.5 446C57.5 449.2 64.5 453.333 67.5 455L100.5 471L120.5 479C122.333 480.667 126.9 484.2 130.5 485C134.1 485.8 133.333 483.333 132.5 482L129.5 480L122.5 475.5L111.5 471L83.5 457.5L62.5 448Z" fill="#EF9D67"/>
<path d="M258 454L198 459.5C193.5 459.913 188 464.5 199 465C207.8 465.4 226 463.5 234 462.5C249.333 461.667 281.3 459.1 286.5 455.5C291.7 451.9 287.667 450.667 285 450.5L273 452L258 454Z" fill="#EF9D67"/>
<path d="M276.429 463.5L216.429 469C211.929 469.413 206.429 474 217.429 474.5C226.229 474.9 244.429 473 252.429 472C267.762 471.167 299.729 468.6 304.929 465C310.129 461.4 306.096 460.167 303.429 460L291.429 461.5L276.429 463.5Z" fill="#EF9D67"/>
<path d="M349 435L306.5 443C302 443.413 299.429 449 310.429 449.5C319.229 449.9 337.429 448 345.429 447C360.762 446.167 359.8 446.6 365 443C370.2 439.4 367.667 435.844 365 435.677L349 435Z" fill="#EF9D67"/>
<path d="M251.429 486.5L191.429 492C186.929 492.413 181.429 497 192.429 497.5C201.229 497.9 219.429 496 227.429 495C284 492 342.8 484.6 348 481C353.2 477.4 347.667 474.667 345 474.5L266.429 484.5L251.429 486.5Z" fill="#EF9D67"/>
<path d="M485.429 414.5L425.429 420C420.929 420.413 415.429 425 426.429 425.5C435.229 425.9 453.429 424 461.429 423C476.762 422.167 508.729 419.6 513.929 416C519.129 412.4 515.096 411.167 512.429 411L500.429 412.5L485.429 414.5Z" fill="#EF9D67"/>
<path d="M508.429 452.5L448.429 458C443.929 458.413 438.429 463 449.429 463.5C458.229 463.9 476.429 462 484.429 461C499.762 460.167 531.729 457.6 536.929 454C542.129 450.4 538.096 449.167 535.429 449L523.429 450.5L508.429 452.5Z" fill="#EF9D67"/>
<path d="M453.429 437.5L393.429 443C388.929 443.413 383.429 448 394.429 448.5C403.229 448.9 421.429 447 429.429 446C444.762 445.167 476.729 442.6 481.929 439C487.129 435.4 483.096 434.167 480.429 434L468.429 435.5L453.429 437.5Z" fill="#EF9D67"/>
<path d="M360.5 509L367 440.5L375 424.5H393L415 510L387 565C376.333 570.833 382.5 512.9 384.5 502.5C387 489.5 382.5 471 382 481C381.6 489 379.5 498.667 378.5 502.5L360.5 509Z" fill="#CC5951"/>
<path d="M362 508.5C369.2 484.9 371.333 453.667 371.5 441L343 431L345 479.5C337.167 506.5 326.2 564.9 335 560.5C346 555 353 538 362 508.5Z" fill="#CD645A" stroke="#CD645A"/>
<path d="M341 468L339 428.5L400 418L405.5 437.5C408.7 462.7 415.833 487 419 496L411.5 531.5L398.5 548.5L390 556L403.5 533.5L408.5 497.5L400 465L398.5 443C391.7 429.8 382 426.167 378 426C386.8 449.6 384.667 462.833 382.5 466.5C368.9 438.1 352.167 432.333 345.5 433C345.5 474 346.5 452 347.5 472.5C348.3 488.9 343.5 501.667 341 506C338.667 522.667 335.2 560.5 334 560.5C332.8 560.5 328.333 548.333 327 544.5V531.5C329.333 522.5 334.7 502.4 337.5 494C340.3 485.6 341 473.167 341 468Z" fill="#AF434B" stroke="#AF434B"/>
<path d="M239.5 43.592L216 57.092L222 68.092L239.5 78.092L254 85.592L274 99.092C312.667 112.759 394.7 140.492 413.5 142.092C432.3 143.692 453 139.759 461 137.592C468.333 134.092 483.8 126.792 487 125.592C491 124.092 487.5 119.092 483 119.592C478.5 120.092 450 89.592 448 85.592C446 81.592 395 38.092 348 31.092C310.4 25.492 284.667 28.7587 276.5 31.092L256 36.592L239.5 43.592Z" fill="#A4D443"/>
<path d="M224 52L215.5 56.5L221 67L234 74.5L250 82.5L274 98L286.5 93.5C286.667 88.3333 286.8 76 288 76C289.5 76 337.151 53.6768 350 51C362 48.5 362 39.5 347.5 42.5C336.08 44.8628 313.333 53 303.5 57.5L291.5 62.5L282.5 68L275 74.5L271 81.5C254 72.5 223.633 61.5 229 61.5C235.5 61.5 255.833 54 266 51C270.167 50.1667 279.2 48.5 282 48.5H298C302.8 48.5 302.667 43 302 41L300 38C299 37.6667 296 37 292 37C288 37 277.667 37.6667 273 38L261 41L252.5 47L236.5 49.5L224 52Z" fill="#5E9D3E"/>
<path d="M335.5 87.5L319 86L329 79.5C335.833 74.6667 353.1 64 367.5 60C385.5 55 403.5 56.5 408.5 57C412.5 57.4 434.833 74.8333 445.5 83.5L437 88.5L429.5 96L418 108.5L408.5 116L421 129C428.948 132.264 444.317 138.019 450.928 138.667C453.387 138.209 454.518 138.048 453.5 138.5C452.966 138.737 452.08 138.78 450.928 138.667C442.517 140.231 418.577 145.256 412 141C405.2 136.6 389.167 115.833 382 106L390 108.5L398.5 110.5H401L406 108.5L422.5 90L434.5 78.5L429.5 73.5L415.5 67C412.333 65.5 403.4 63.1 393 65.5C380 68.5 361 69 335.5 87.5Z" fill="#5D9D3E"/>
<path d="M150.623 136.325C174.623 111.825 218.623 112.325 236.623 110.325C254.623 108.325 240.723 122.725 257.123 110.325C277.623 94.8252 312.938 81.5025 336.123 85.8252C382.039 94.3857 416.123 126.325 437.623 180.825C459.123 235.325 445.623 257.825 449.123 284.325C452.623 310.825 430.623 327.825 430.623 327.825C419.29 337.325 380.723 359.225 317.123 370.825C253.523 382.425 197.29 369.658 177.123 361.825C154.957 349.825 109.623 312.825 105.623 260.825C100.623 195.825 126.623 160.825 150.623 136.325Z" fill="#8A3D6E"/>
<path fill-rule="evenodd" clip-rule="evenodd" d="M105.978 227C104.851 237.508 104.652 249.005 105.623 261.635C109.623 313.635 154.957 350.635 177.123 362.635C197.29 370.469 253.523 383.235 317.123 371.635C380.723 360.035 419.29 338.135 430.623 328.635C430.623 328.635 452.623 311.635 449.123 285.135C448.521 280.578 448.422 276.139 448.562 271.635C444.037 288.077 431.247 297.961 431.247 297.961C419.913 307.461 381.347 329.361 317.747 340.961C254.147 352.561 197.913 339.794 177.747 331.961C155.58 319.961 110.247 282.961 106.247 230.961C106.144 229.628 106.055 228.308 105.978 227ZM449.762 231C450.402 239.579 450.137 247.082 449.689 254.009C448.726 246.314 449.177 238.939 449.762 231Z" fill="#672451"/>
<path d="M442.5 194.5C432.5 156.5 406.333 125 394.5 114L420.5 219.5L412 263.5L327 339C369.167 337.333 452.9 325.1 450.5 289.5C447.5 245 455 242 442.5 194.5Z" fill="#79335F"/>
<path d="M368.585 321.723C345.385 343.723 276.918 349.89 245.585 350.223C234.585 338.39 217.4 328.2 227 327C239 325.5 291 343 354.5 309C418 275 404.5 248 408.5 244.5C411.7 241.7 413.333 223 413 213.5L408.5 200.223L397.5 197.5C401.167 187.667 395.385 166.023 386.585 147.223C377.785 128.423 368.252 116.39 364.585 112.723C362.252 108.39 352.585 99.0233 332.585 96.2233C312.585 93.4233 286.918 103.723 276.585 109.223L295.085 119.723L290.085 132.723L257.585 135.223L218.085 123.223C201.752 121.223 165.085 123.223 149.085 147.223C129.085 177.223 106.085 219.223 124.585 252.723C139.385 279.523 164.833 303.167 179.5 309L166.5 325C157.833 322.667 138.785 305.023 121.585 280.223C104.385 255.423 105.833 230 106.5 220C108.5 208.833 112.885 178.723 132.085 150.723C151.285 122.723 188.418 113.723 204.585 112.723H253.585C256.752 109.557 264.585 102.523 270.585 99.7233C278.085 96.2233 310.085 84.2233 330.585 86.2233C351.085 88.2233 374.585 96.2233 392.085 112.723C406.085 125.923 415.585 141.223 418.585 147.223C424.252 167.723 436.385 211.523 439.585 222.723C443.585 236.723 397.585 294.223 368.585 321.723Z" fill="#79325E"/>
<path d="M400.987 312.02C402.96 305.142 410.654 303.02 413.487 302.52C405.987 277.52 424.487 266.52 425.487 267.02C426.487 267.52 446.487 265.02 452.987 272.52C459.487 280.02 471.495 286.827 467.487 310.02C463.547 332.821 433.822 349.666 425.487 349.52C417.632 349.383 403.661 353.094 396.987 340.52C391.687 330.533 398.378 321.12 400.987 312.02Z" fill="#F8DAB6"/>
<path fill-rule="evenodd" clip-rule="evenodd" d="M396 338.169C396.254 338.842 396.559 339.517 396.919 340.195C402.393 350.509 412.777 349.866 420.668 349.377C422.397 349.27 424.007 349.171 425.419 349.195C433.753 349.341 463.479 332.496 467.419 309.695C470.783 290.228 462.864 282.305 456.389 275.827C455.77 275.208 455.164 274.602 454.583 274C458.478 279.682 461.107 287.477 458.906 300.215C454.966 323.016 425.241 339.861 416.906 339.715C415.494 339.691 413.885 339.79 412.156 339.898C407.144 340.208 401.126 340.581 396 338.169Z" fill="#FCA97E"/>
<path d="M168.602 321.363C177.458 307.739 190.326 302.332 198.068 300.821C202.204 299.585 212.406 298.511 218.602 307.363C227.002 319.363 226.102 331.03 224.602 335.363H232.102C236.902 335.363 240.436 340.696 241.602 343.363C246.436 353.53 253.202 375.363 241.602 381.363C227.102 388.863 204.102 383.863 192.602 376.863C181.102 369.863 155.602 341.363 168.602 321.363Z" fill="#F8DAB6"/>
<path fill-rule="evenodd" clip-rule="evenodd" d="M172.712 316C171.275 317.653 169.896 319.468 168.602 321.458C155.602 341.458 181.102 369.958 192.602 376.958C204.102 383.958 227.102 388.958 241.602 381.458C244.892 379.757 246.704 376.782 247.503 373.161C247.405 373.216 247.306 373.269 247.205 373.321C232.705 380.821 209.705 375.821 198.205 368.821C187.209 362.128 163.415 335.78 172.712 316Z" fill="#FFA77F"/>
<path d="M141.5 246.864C132.7 236.464 129.5 224.864 129 220.364C152.2 217.964 168.333 228.03 173.5 233.364C176.167 236.697 180.6 244.064 177 246.864C172.5 250.364 152.5 259.864 141.5 246.864Z" fill="#DC95AD"/>
<path d="M227.368 256.669C218.568 254.669 216.368 250.169 216.368 248.169C214.368 238.169 220.868 234.169 227.368 231.169C232.568 228.769 244.535 228.836 249.868 229.169C254.535 230.502 263.468 234.869 261.868 241.669C259.868 250.169 255.868 249.669 255.368 252.669C254.868 255.669 238.368 259.169 227.368 256.669Z" fill="#F9827E"/>
<path d="M209 206.222C209 222.622 217.667 230.722 222 232.722L249 228.722L257 223.722C259.667 217.889 262.5 203.222 252.5 191.222C242.5 179.222 229 180.222 223.5 182.222C218.667 183.389 209 189.822 209 206.222Z" fill="#58212E"/>
<path d="M226.017 196.034C220.817 196.434 219.851 201.867 220.017 204.534C224.417 208.934 229.184 203.701 231.017 200.534C231.517 198.867 231.217 195.634 226.017 196.034Z" fill="#F9FAFB"/>
<path d="M243.302 190.379C235.933 188.166 235.469 196.212 236.302 199.879C239.802 203.379 244.96 201.34 245.802 201.879C246.902 202.583 253.002 193.291 243.302 190.379Z" fill="#EDF2F0"/>
<path d="M362.604 206C355.004 206 348.438 212.667 346.104 216C345.271 218.333 344.104 223.5 346.104 225.5C348.604 228 354.604 234 366.104 232C377.604 230 382.604 225.5 385.104 224.5C387.604 223.5 389.604 218.5 387.104 213C384.604 207.5 372.104 206 362.604 206Z" fill="#F9827E"/>
<path d="M325.385 181.404C322.185 197.004 339.718 208.237 348.885 211.904C357.052 210.237 373.585 206.604 374.385 205.404C375.385 203.904 375.885 201.904 375.885 197.404C375.885 193.804 374.885 187.904 374.385 185.404C373.552 181.237 369.885 171.104 361.885 163.904C353.885 156.704 344.218 157.571 340.385 158.904C336.718 159.904 328.585 165.804 325.385 181.404Z" fill="#58212F"/>
<path d="M340.329 178.663C339.129 175.863 341.496 172.829 342.829 171.663C343.996 171.163 346.629 170.463 347.829 171.663C349.329 173.163 350.829 175.163 348.829 178.663C346.829 182.163 341.829 182.163 340.329 178.663Z" fill="#EFFAFA"/>
<path d="M356.523 170.137C352.523 170.537 351.856 173.97 352.023 175.637C354.523 179.637 356.531 181.317 358.523 181.137L358.534 181.136C359.848 181.017 366.018 180.459 364.523 175.637C362.867 170.298 361.523 169.637 356.523 170.137Z" fill="#EAECEB"/>
<path d="M196.404 165.014C195.204 160.614 190.571 157.18 188.404 156.014C177.404 148.514 160.404 156.014 150.904 167.514C141.404 179.014 138.904 190.514 140.404 198.514C141.604 204.914 147.904 209.514 150.904 211.014C161.237 212.18 183.804 210.814 191.404 196.014C200.904 177.514 197.904 170.514 196.404 165.014Z" fill="#E6B7C7"/>
<path d="M329.5 230L282 236L278 231V228.5L278.5 227L326 218L328.5 218.5L329.5 220.5V230Z" fill="#FDF4DD"/>
<path d="M329.5 230L282 236.5C282 243 296 261 313.5 258C327.5 255.6 330 238.333 329.5 230Z" fill="#E05B7E"/>
<path d="M304 246C299.6 245.6 294.5 250.5 292.5 253C298.5 259.8 308 259.833 312 259C316.684 258.552 326.471 253.658 324 251C321.255 248.048 309.5 246.5 304 246Z" fill="#FA8F8E"/>
<path d="M216 123L234 112C240.5 117.167 253.6 127.1 254 125.5C254.5 123.5 286.5 123 279 127.5C271.5 132 266 132 263.5 133.5C261.5 134.7 253 134 249 133.5L245.5 131L216 123Z" fill="#5E214D"/>
<path d="M251 134L255 128.5L239 98.5L224.5 77L209 52.5L200.5 35L187 1L179.5 4.5L167 9.5H164.5L165.5 14.5L169.5 20.5L183 41.5L199.5 67.5L221.5 93.5L240.5 118.5L247 132.5L251 134Z" fill="#A55E4C"/>
<path d="M221.5 70L252 114.5L255 130L226 83L209.5 58L198.5 36.5L186 4.5H183L175.5 12L172 13.5H166.5L177 30.5L192 54.5L206.5 72L234.5 110L247.5 133.5L243.5 130L232.5 111.5L203 75.5L189 57L173 32.5L161 8.5L187.5 0L193.5 15L202 34L214.5 58L221.5 70Z" fill="#833449"/>
</svg>
