<svg width="351" height="62" viewBox="0 0 351 62" fill="none" xmlns="http://www.w3.org/2000/svg">
<g filter="url(#filter0_dd_23_317)">
<rect x="3" y="3" width="345" height="54" rx="10" fill="black"/>
<path d="M71.9673 37.924C71.6195 38.7275 71.2078 39.4672 70.7308 40.1472C70.0805 41.0743 69.5481 41.716 69.1378 42.0724C68.5018 42.6573 67.8204 42.9568 67.0906 42.9739C66.5667 42.9739 65.935 42.8248 65.1996 42.5224C64.4617 42.2214 63.7837 42.0724 63.1637 42.0724C62.5135 42.0724 61.8161 42.2214 61.0702 42.5224C60.3231 42.8248 59.7213 42.9824 59.2612 42.998C58.5614 43.0278 57.8639 42.7197 57.1677 42.0724C56.7233 41.6848 56.1675 41.0204 55.5017 40.0791C54.7873 39.0739 54.1999 37.9084 53.7398 36.5795C53.247 35.1442 53 33.7543 53 32.4087C53 30.8673 53.3331 29.5379 54.0002 28.4238C54.5245 27.529 55.222 26.8231 56.095 26.3049C56.9679 25.7867 57.9112 25.5227 58.927 25.5058C59.4828 25.5058 60.2117 25.6777 61.1175 26.0156C62.0207 26.3546 62.6006 26.5265 62.8549 26.5265C63.045 26.5265 63.6893 26.3255 64.7815 25.9247C65.8143 25.5531 66.686 25.3992 67.4001 25.4598C69.3352 25.6159 70.789 26.3788 71.7558 27.753C70.0252 28.8016 69.1691 30.2703 69.1861 32.1544C69.2017 33.622 69.7341 34.8432 70.7804 35.8129C71.2546 36.2629 71.7842 36.6107 72.3734 36.8578C72.2456 37.2283 72.1107 37.5832 71.9673 37.924ZM67.5293 20.4601C67.5293 21.6104 67.1091 22.6844 66.2714 23.6785C65.2606 24.8602 64.038 25.5431 62.7121 25.4354C62.6952 25.2974 62.6854 25.1521 62.6854 24.9995C62.6854 23.8953 63.1661 22.7135 64.0198 21.7472C64.446 21.258 64.988 20.8512 65.6454 20.5267C66.3013 20.2071 66.9217 20.0303 67.5052 20C67.5222 20.1538 67.5293 20.3076 67.5293 20.4601V20.4601Z" fill="white"/>
<path d="M98.5859 34.3379C98.6348 36.1152 99.875 38.2734 103.508 38.2734C106.428 38.2734 108.586 36.8379 108.586 34.2207C108.586 32.0039 107.102 31.0566 105.08 30.5488L102.854 29.9824C101.594 29.6797 100.988 29.0254 100.988 28.127C100.988 26.8086 102.092 26.0566 103.674 26.0566C105.451 26.0566 106.369 27.0234 106.477 28.2148H108.42C108.371 25.6855 106.164 24.3672 103.703 24.3672C101.193 24.3672 98.9668 25.7441 98.9668 28.2734C98.9668 30.4023 100.51 31.418 102.17 31.8281L104.416 32.3945C105.871 32.7559 106.555 33.332 106.555 34.3867C106.555 35.7246 105.461 36.5742 103.684 36.5742C101.73 36.5742 100.686 35.5488 100.568 34.3379H98.5859ZM110.969 38H112.941V27.707H110.969V38ZM110.754 25.1973C110.754 25.8613 111.291 26.3594 111.955 26.3594C112.619 26.3594 113.156 25.8613 113.156 25.1973C113.156 24.5332 112.619 24.0352 111.955 24.0352C111.291 24.0352 110.754 24.5332 110.754 25.1973ZM120.012 40.2949C118.703 40.2949 117.873 39.6016 117.688 38.8008H115.715C115.92 40.5195 117.268 41.8477 120.002 41.8477C122.326 41.8477 124.504 40.6074 124.504 37.9121V27.707H122.59V29.1719H122.521C122.062 28.2832 120.949 27.5508 119.543 27.5508C117.15 27.5508 115.49 29.25 115.49 32.3164V33.0977C115.49 36.2031 117.16 37.8926 119.543 37.8926C120.959 37.8926 122.072 37.1602 122.473 36.2617H122.541V37.8535C122.541 39.3867 121.555 40.2949 120.012 40.2949ZM120.051 29.1914C121.564 29.1914 122.541 30.4316 122.541 32.4336V33.0488C122.541 35.0801 121.613 36.291 120.051 36.291C118.439 36.291 117.482 35.0898 117.482 33.0488V32.4336C117.482 30.3535 118.439 29.1914 120.051 29.1914ZM127.395 38H129.357V31.8086C129.357 30.4316 130.109 29.2793 131.73 29.2793C133.098 29.2793 134.084 30.0801 134.084 31.7598V38H136.047V31.3887C136.047 28.8789 134.514 27.541 132.404 27.541C130.715 27.541 129.768 28.4395 129.406 29.1133H129.338V27.707H127.395V38ZM144.875 38V24.6699H142.863V38H144.875ZM147.844 38H149.807V31.8086C149.807 30.4316 150.559 29.2793 152.18 29.2793C153.547 29.2793 154.533 30.0801 154.533 31.7598V38H156.496V31.3887C156.496 28.8789 154.963 27.541 152.854 27.541C151.164 27.541 150.217 28.4395 149.855 29.1133H149.787V27.707H147.844V38ZM176.096 27.707H174.113L172.336 35.666H172.258L170.051 27.707H168.176L165.979 35.666H165.891L164.113 27.707H162.121L164.797 38H166.857L169.084 30.2656H169.133L171.359 38H173.42L176.096 27.707ZM178.137 38H180.109V27.707H178.137V38ZM177.922 25.1973C177.922 25.8613 178.459 26.3594 179.123 26.3594C179.787 26.3594 180.324 25.8613 180.324 25.1973C180.324 24.5332 179.787 24.0352 179.123 24.0352C178.459 24.0352 177.922 24.5332 177.922 25.1973ZM183.713 27.707H182.287V29.3086H183.693V35.1094C183.693 37.1602 184.309 38.0781 186.789 38.0781C187.189 38.0781 187.58 38.0391 187.746 38.0098V36.4766C187.609 36.4863 187.453 36.4961 187.277 36.4961C186.076 36.4961 185.656 36.1836 185.656 35.0117V29.3086H187.678V27.707H185.656V25.168H183.713V27.707ZM190.178 38H192.15V31.8086C192.15 30.4316 192.893 29.2793 194.523 29.2793C195.9 29.2793 196.877 30.0801 196.877 31.7598V38H198.85V31.3887C198.85 28.8789 197.307 27.541 195.197 27.541C193.518 27.541 192.58 28.4395 192.219 29.1133H192.15V23.9668H190.178V38ZM206.369 38L207.619 34.1816H212.404L213.645 38H215.803L211.154 24.6699H208.977L204.328 38H206.369ZM210.051 26.8574L211.926 32.6191H208.098L209.982 26.8574H210.051ZM222.414 38.1562C224.807 38.1562 226.457 36.3496 226.457 33.3125V32.3848C226.457 29.3184 224.777 27.5508 222.473 27.5508C221.086 27.5508 220.031 28.2246 219.455 29.2012H219.387V27.707H217.473V41.5352H219.445V36.5938H219.514C220.07 37.5215 221.086 38.1562 222.414 38.1562ZM222.043 36.4961C220.422 36.4961 219.426 35.207 219.426 33.1855V32.4434C219.426 30.4805 220.412 29.1914 222.004 29.1914C223.547 29.1914 224.465 30.3926 224.465 32.4531V33.1855C224.465 35.3438 223.488 36.4961 222.043 36.4961ZM233.859 38.1562C236.252 38.1562 237.902 36.3496 237.902 33.3125V32.3848C237.902 29.3184 236.223 27.5508 233.918 27.5508C232.531 27.5508 231.477 28.2246 230.9 29.2012H230.832V27.707H228.918V41.5352H230.891V36.5938H230.959C231.516 37.5215 232.531 38.1562 233.859 38.1562ZM233.488 36.4961C231.867 36.4961 230.871 35.207 230.871 33.1855V32.4434C230.871 30.4805 231.857 29.1914 233.449 29.1914C234.992 29.1914 235.91 30.3926 235.91 32.4531V33.1855C235.91 35.3438 234.934 36.4961 233.488 36.4961ZM240.412 38H242.375V23.9668H240.412V38ZM249.318 38.1758C251.76 38.1758 253.107 36.7793 253.449 35.0996H251.545C251.252 36.0176 250.49 36.584 249.357 36.584C247.805 36.584 246.848 35.3535 246.848 33.5273V33.3125H253.576V32.3359C253.576 29.4648 251.965 27.5312 249.24 27.5312C246.525 27.5312 244.885 29.416 244.885 32.2383V33.3223C244.885 36.3203 246.594 38.1758 249.318 38.1758ZM246.848 31.8672V31.8379C246.848 30.3145 247.785 29.1035 249.25 29.1035C250.686 29.1035 251.633 30.3047 251.633 31.8379V31.8672H246.848Z" fill="white"/>
</g>
<defs>
<filter id="filter0_dd_23_317" x="0" y="0" width="351" height="62" filterUnits="userSpaceOnUse" color-interpolation-filters="sRGB">
<feFlood flood-opacity="0" result="BackgroundImageFix"/>
<feColorMatrix in="SourceAlpha" type="matrix" values="0 0 0 0 0 0 0 0 0 0 0 0 0 0 0 0 0 0 127 0" result="hardAlpha"/>
<feOffset dy="2"/>
<feGaussianBlur stdDeviation="1.5"/>
<feColorMatrix type="matrix" values="0 0 0 0 0 0 0 0 0 0 0 0 0 0 0 0 0 0 0.168 0"/>
<feBlend mode="normal" in2="BackgroundImageFix" result="effect1_dropShadow_23_317"/>
<feColorMatrix in="SourceAlpha" type="matrix" values="0 0 0 0 0 0 0 0 0 0 0 0 0 0 0 0 0 0 127 0" result="hardAlpha"/>
<feOffset/>
<feGaussianBlur stdDeviation="1.5"/>
<feColorMatrix type="matrix" values="0 0 0 0 0 0 0 0 0 0 0 0 0 0 0 0 0 0 0.084 0"/>
<feBlend mode="normal" in2="effect1_dropShadow_23_317" result="effect2_dropShadow_23_317"/>
<feBlend mode="normal" in="SourceGraphic" in2="effect2_dropShadow_23_317" result="shape"/>
</filter>
</defs>
</svg>
