<svg width="351" height="62" viewBox="0 0 351 62" fill="none" xmlns="http://www.w3.org/2000/svg">
<g filter="url(#filter0_dd_23_307)">
<rect x="3" y="3" width="345" height="54" rx="10" fill="white"/>
<rect x="46" y="3" width="259" height="54" rx="10" fill="white"/>
<rect width="24" height="24" transform="translate(61 18)" fill="white"/>
<path fill-rule="evenodd" clip-rule="evenodd" d="M84.04 30.2614C84.04 29.4459 83.9668 28.6618 83.8309 27.9091H73V32.3575H79.1891C78.9225 33.795 78.1123 35.013 76.8943 35.8284V38.7139H80.6109C82.7855 36.7118 84.04 33.7636 84.04 30.2614Z" fill="#4285F4"/>
<path fill-rule="evenodd" clip-rule="evenodd" d="M72.9999 41.4998C76.1049 41.4998 78.7081 40.4701 80.6108 38.7137L76.8942 35.8283C75.8644 36.5183 74.5472 36.926 72.9999 36.926C70.0047 36.926 67.4694 34.903 66.5651 32.1848H62.7231V35.1644C64.6154 38.9228 68.5044 41.4998 72.9999 41.4998Z" fill="#34A853"/>
<path fill-rule="evenodd" clip-rule="evenodd" d="M66.5652 32.1851C66.3352 31.4951 66.2045 30.758 66.2045 30.0001C66.2045 29.2421 66.3352 28.5051 66.5652 27.8151V24.8355H62.7232C61.9443 26.388 61.5 28.1444 61.5 30.0001C61.5 31.8557 61.9443 33.6121 62.7232 35.1646L66.5652 32.1851Z" fill="#FBBC05"/>
<path fill-rule="evenodd" clip-rule="evenodd" d="M72.9999 23.0739C74.6883 23.0739 76.2042 23.6541 77.396 24.7936L80.6944 21.4952C78.7029 19.6395 76.0997 18.5 72.9999 18.5C68.5044 18.5 64.6154 21.077 62.7231 24.8355L66.5651 27.815C67.4694 25.0968 70.0047 23.0739 72.9999 23.0739Z" fill="#EA4335"/>
<path d="M108.877 32.3379C108.877 31.7129 108.656 31.2311 108.213 30.8926C107.777 30.554 106.986 30.2122 105.84 29.8672C104.694 29.5221 103.783 29.138 103.105 28.7148C101.81 27.901 101.162 26.8398 101.162 25.5312C101.162 24.3854 101.628 23.4414 102.559 22.6992C103.496 21.957 104.71 21.5859 106.201 21.5859C107.191 21.5859 108.073 21.7682 108.848 22.1328C109.622 22.4974 110.231 23.0182 110.674 23.6953C111.117 24.3659 111.338 25.1113 111.338 25.9316H108.877C108.877 25.1895 108.643 24.61 108.174 24.1934C107.712 23.7702 107.048 23.5586 106.182 23.5586C105.374 23.5586 104.746 23.7311 104.297 24.0762C103.854 24.4212 103.633 24.903 103.633 25.5215C103.633 26.0423 103.874 26.4785 104.355 26.8301C104.837 27.1751 105.632 27.5137 106.738 27.8457C107.845 28.1712 108.734 28.5456 109.404 28.9688C110.075 29.3854 110.566 29.8672 110.879 30.4141C111.191 30.9544 111.348 31.5892 111.348 32.3184C111.348 33.5033 110.892 34.4473 109.98 35.1504C109.076 35.847 107.845 36.1953 106.289 36.1953C105.26 36.1953 104.313 36.0065 103.447 35.6289C102.588 35.2448 101.917 34.7174 101.436 34.0469C100.96 33.3763 100.723 32.5951 100.723 31.7031H103.193C103.193 32.5104 103.46 33.1354 103.994 33.5781C104.528 34.0208 105.293 34.2422 106.289 34.2422C107.148 34.2422 107.793 34.0697 108.223 33.7246C108.659 33.373 108.877 32.9108 108.877 32.3379ZM115.811 36H113.438V25.4336H115.811V36ZM113.291 22.6895C113.291 22.3249 113.405 22.0221 113.633 21.7812C113.867 21.5404 114.199 21.4199 114.629 21.4199C115.059 21.4199 115.391 21.5404 115.625 21.7812C115.859 22.0221 115.977 22.3249 115.977 22.6895C115.977 23.0475 115.859 23.347 115.625 23.5879C115.391 23.8223 115.059 23.9395 114.629 23.9395C114.199 23.9395 113.867 23.8223 113.633 23.5879C113.405 23.347 113.291 23.0475 113.291 22.6895ZM117.988 30.6387C117.988 28.998 118.372 27.6895 119.141 26.7129C119.915 25.7298 120.941 25.2383 122.217 25.2383C123.421 25.2383 124.368 25.6582 125.059 26.498L125.166 25.4336H127.305V35.6777C127.305 37.0645 126.872 38.1582 126.006 38.959C125.146 39.7598 123.984 40.1602 122.52 40.1602C121.745 40.1602 120.986 39.9974 120.244 39.6719C119.508 39.3529 118.949 38.9329 118.564 38.4121L119.688 36.9863C120.417 37.8522 121.315 38.2852 122.383 38.2852C123.171 38.2852 123.792 38.0703 124.248 37.6406C124.704 37.2174 124.932 36.5924 124.932 35.7656V35.0527C124.248 35.8145 123.337 36.1953 122.197 36.1953C120.96 36.1953 119.948 35.7038 119.16 34.7207C118.379 33.7376 117.988 32.377 117.988 30.6387ZM120.352 30.8438C120.352 31.9049 120.566 32.7415 120.996 33.3535C121.432 33.959 122.035 34.2617 122.803 34.2617C123.76 34.2617 124.469 33.8516 124.932 33.0312V28.3828C124.482 27.582 123.779 27.1816 122.822 27.1816C122.041 27.1816 121.432 27.4909 120.996 28.1094C120.566 28.7279 120.352 29.6393 120.352 30.8438ZM131.953 25.4336L132.021 26.6543C132.803 25.7103 133.828 25.2383 135.098 25.2383C137.298 25.2383 138.418 26.498 138.457 29.0176V36H136.084V29.1543C136.084 28.4837 135.938 27.9889 135.645 27.6699C135.358 27.3444 134.886 27.1816 134.229 27.1816C133.271 27.1816 132.559 27.6146 132.09 28.4805V36H129.717V25.4336H131.953ZM148.701 36H146.24V21.7812H148.701V36ZM153.711 25.4336L153.779 26.6543C154.561 25.7103 155.586 25.2383 156.855 25.2383C159.056 25.2383 160.176 26.498 160.215 29.0176V36H157.842V29.1543C157.842 28.4837 157.695 27.9889 157.402 27.6699C157.116 27.3444 156.644 27.1816 155.986 27.1816C155.029 27.1816 154.316 27.6146 153.848 28.4805V36H151.475V25.4336H153.711ZM176.904 32.7285L178.584 25.4336H180.898L178.018 36H176.064L173.799 28.7441L171.572 36H169.619L166.729 25.4336H169.043L170.752 32.6504L172.92 25.4336H174.707L176.904 32.7285ZM185.01 36H182.637V25.4336H185.01V36ZM182.49 22.6895C182.49 22.3249 182.604 22.0221 182.832 21.7812C183.066 21.5404 183.398 21.4199 183.828 21.4199C184.258 21.4199 184.59 21.5404 184.824 21.7812C185.059 22.0221 185.176 22.3249 185.176 22.6895C185.176 23.0475 185.059 23.347 184.824 23.5879C184.59 23.8223 184.258 23.9395 183.828 23.9395C183.398 23.9395 183.066 23.8223 182.832 23.5879C182.604 23.347 182.49 23.0475 182.49 22.6895ZM190.576 22.8652V25.4336H192.441V27.1914H190.576V33.0898C190.576 33.4935 190.654 33.7865 190.811 33.9688C190.973 34.1445 191.26 34.2324 191.67 34.2324C191.943 34.2324 192.22 34.1999 192.5 34.1348V35.9707C191.96 36.1204 191.439 36.1953 190.938 36.1953C189.115 36.1953 188.203 35.1895 188.203 33.1777V27.1914H186.465V25.4336H188.203V22.8652H190.576ZM196.602 26.5859C197.376 25.6875 198.356 25.2383 199.541 25.2383C201.794 25.2383 202.936 26.5241 202.969 29.0957V36H200.596V29.1836C200.596 28.4544 200.436 27.9401 200.117 27.6406C199.805 27.3346 199.342 27.1816 198.73 27.1816C197.78 27.1816 197.07 27.6048 196.602 28.4512V36H194.229V21H196.602V26.5859ZM221.484 34.1543C220.97 34.8249 220.257 35.3327 219.346 35.6777C218.434 36.0228 217.399 36.1953 216.24 36.1953C215.049 36.1953 213.994 35.9251 213.076 35.3848C212.158 34.8444 211.449 34.0729 210.947 33.0703C210.452 32.0612 210.195 30.8861 210.176 29.5449V28.4316C210.176 26.2832 210.69 24.6068 211.719 23.4023C212.747 22.1914 214.183 21.5859 216.025 21.5859C217.607 21.5859 218.864 21.9766 219.795 22.7578C220.726 23.5391 221.286 24.6654 221.475 26.1367H219.053C218.779 24.4245 217.786 23.5684 216.074 23.5684C214.967 23.5684 214.124 23.9688 213.545 24.7695C212.972 25.5638 212.676 26.7324 212.656 28.2754V29.3691C212.656 30.9056 212.979 32.1003 213.623 32.9531C214.274 33.7995 215.176 34.2227 216.328 34.2227C217.591 34.2227 218.49 33.9362 219.023 33.3633V30.5801H216.094V28.7051H221.484V34.1543ZM223.525 30.6191C223.525 29.584 223.73 28.653 224.141 27.8262C224.551 26.9928 225.127 26.3548 225.869 25.9121C226.611 25.4629 227.464 25.2383 228.428 25.2383C229.854 25.2383 231.009 25.6973 231.895 26.6152C232.786 27.5332 233.268 28.7507 233.34 30.2676L233.35 30.8242C233.35 31.8659 233.148 32.7969 232.744 33.6172C232.347 34.4375 231.774 35.0723 231.025 35.5215C230.283 35.9707 229.424 36.1953 228.447 36.1953C226.956 36.1953 225.762 35.7005 224.863 34.7109C223.971 33.7148 223.525 32.39 223.525 30.7363V30.6191ZM225.898 30.8242C225.898 31.9115 226.123 32.7643 226.572 33.3828C227.021 33.9948 227.646 34.3008 228.447 34.3008C229.248 34.3008 229.87 33.9883 230.312 33.3633C230.762 32.7383 230.986 31.8236 230.986 30.6191C230.986 29.5514 230.755 28.7051 230.293 28.0801C229.837 27.4551 229.215 27.1426 228.428 27.1426C227.653 27.1426 227.038 27.4518 226.582 28.0703C226.126 28.6823 225.898 29.6003 225.898 30.8242ZM234.912 30.6191C234.912 29.584 235.117 28.653 235.527 27.8262C235.938 26.9928 236.514 26.3548 237.256 25.9121C237.998 25.4629 238.851 25.2383 239.814 25.2383C241.24 25.2383 242.396 25.6973 243.281 26.6152C244.173 27.5332 244.655 28.7507 244.727 30.2676L244.736 30.8242C244.736 31.8659 244.535 32.7969 244.131 33.6172C243.734 34.4375 243.161 35.0723 242.412 35.5215C241.67 35.9707 240.811 36.1953 239.834 36.1953C238.343 36.1953 237.148 35.7005 236.25 34.7109C235.358 33.7148 234.912 32.39 234.912 30.7363V30.6191ZM237.285 30.8242C237.285 31.9115 237.51 32.7643 237.959 33.3828C238.408 33.9948 239.033 34.3008 239.834 34.3008C240.635 34.3008 241.257 33.9883 241.699 33.3633C242.148 32.7383 242.373 31.8236 242.373 30.6191C242.373 29.5514 242.142 28.7051 241.68 28.0801C241.224 27.4551 240.602 27.1426 239.814 27.1426C239.04 27.1426 238.424 27.4518 237.969 28.0703C237.513 28.6823 237.285 29.6003 237.285 30.8242ZM246.328 30.6387C246.328 28.998 246.712 27.6895 247.48 26.7129C248.255 25.7298 249.281 25.2383 250.557 25.2383C251.761 25.2383 252.708 25.6582 253.398 26.498L253.506 25.4336H255.645V35.6777C255.645 37.0645 255.212 38.1582 254.346 38.959C253.486 39.7598 252.324 40.1602 250.859 40.1602C250.085 40.1602 249.326 39.9974 248.584 39.6719C247.848 39.3529 247.288 38.9329 246.904 38.4121L248.027 36.9863C248.757 37.8522 249.655 38.2852 250.723 38.2852C251.51 38.2852 252.132 38.0703 252.588 37.6406C253.044 37.2174 253.271 36.5924 253.271 35.7656V35.0527C252.588 35.8145 251.676 36.1953 250.537 36.1953C249.3 36.1953 248.288 35.7038 247.5 34.7207C246.719 33.7376 246.328 32.377 246.328 30.6387ZM248.691 30.8438C248.691 31.9049 248.906 32.7415 249.336 33.3535C249.772 33.959 250.374 34.2617 251.143 34.2617C252.1 34.2617 252.809 33.8516 253.271 33.0312V28.3828C252.822 27.582 252.119 27.1816 251.162 27.1816C250.381 27.1816 249.772 27.4909 249.336 28.1094C248.906 28.7279 248.691 29.6393 248.691 30.8438ZM260.615 36H258.242V21H260.615V36ZM267.861 36.1953C266.357 36.1953 265.137 35.7233 264.199 34.7793C263.268 33.8288 262.803 32.5658 262.803 30.9902V30.6973C262.803 29.6426 263.005 28.7018 263.408 27.875C263.818 27.0417 264.391 26.3939 265.127 25.9316C265.863 25.4694 266.683 25.2383 267.588 25.2383C269.027 25.2383 270.137 25.6973 270.918 26.6152C271.706 27.5332 272.1 28.832 272.1 30.5117V31.4688H265.195C265.267 32.3411 265.557 33.0312 266.064 33.5391C266.579 34.0469 267.223 34.3008 267.998 34.3008C269.085 34.3008 269.971 33.8613 270.654 32.9824L271.934 34.2031C271.51 34.8346 270.944 35.3262 270.234 35.6777C269.531 36.0228 268.74 36.1953 267.861 36.1953ZM267.578 27.1426C266.927 27.1426 266.4 27.3704 265.996 27.8262C265.599 28.2819 265.345 28.9167 265.234 29.7305H269.756V29.5547C269.704 28.7604 269.492 28.1615 269.121 27.7578C268.75 27.3477 268.236 27.1426 267.578 27.1426Z" fill="black" fill-opacity="0.54"/>
</g>
<defs>
<filter id="filter0_dd_23_307" x="0" y="0" width="351" height="62" filterUnits="userSpaceOnUse" color-interpolation-filters="sRGB">
<feFlood flood-opacity="0" result="BackgroundImageFix"/>
<feColorMatrix in="SourceAlpha" type="matrix" values="0 0 0 0 0 0 0 0 0 0 0 0 0 0 0 0 0 0 127 0" result="hardAlpha"/>
<feOffset dy="2"/>
<feGaussianBlur stdDeviation="1.5"/>
<feColorMatrix type="matrix" values="0 0 0 0 0 0 0 0 0 0 0 0 0 0 0 0 0 0 0.168 0"/>
<feBlend mode="normal" in2="BackgroundImageFix" result="effect1_dropShadow_23_307"/>
<feColorMatrix in="SourceAlpha" type="matrix" values="0 0 0 0 0 0 0 0 0 0 0 0 0 0 0 0 0 0 127 0" result="hardAlpha"/>
<feOffset/>
<feGaussianBlur stdDeviation="1.5"/>
<feColorMatrix type="matrix" values="0 0 0 0 0 0 0 0 0 0 0 0 0 0 0 0 0 0 0.084 0"/>
<feBlend mode="normal" in2="effect1_dropShadow_23_307" result="effect2_dropShadow_23_307"/>
<feBlend mode="normal" in="SourceGraphic" in2="effect2_dropShadow_23_307" result="shape"/>
</filter>
</defs>
</svg>
